<mxfile host="app.diagrams.net" modified="2023-06-09T06:39:18.484Z" agent="Mozilla/5.0 (Windows NT 10.0; Win64; x64) AppleWebKit/537.36 (KHTML, like Gecko) Chrome/114.0.0.0 Safari/537.36" etag="ceJKMOZ6RuhlBFUG61WD" version="21.3.5" type="github">
  <diagram name="第 1 页" id="yUAKFgmiYI_kj1EXI8XT">
    <mxGraphModel dx="1014" dy="1701" grid="1" gridSize="10" guides="1" tooltips="1" connect="1" arrows="1" fold="1" page="1" pageScale="1" pageWidth="827" pageHeight="1169" math="0" shadow="0">
      <root>
        <mxCell id="0" />
        <mxCell id="1" parent="0" />
        <mxCell id="zuOMxPo34sfkS7YnPlBM-20" value="" style="rounded=1;whiteSpace=wrap;html=1;fillColor=#cdeb8b;strokeColor=#36393d;" vertex="1" parent="1">
          <mxGeometry x="450" y="2490" width="482" height="130" as="geometry" />
        </mxCell>
        <mxCell id="vJH0OtKHY2Miuph9InEm-1" value="" style="rounded=0;whiteSpace=wrap;html=1;fillColor=#dae8fc;strokeColor=#6c8ebf;" parent="1" vertex="1">
          <mxGeometry x="259" y="-220" width="510" height="780" as="geometry" />
        </mxCell>
        <mxCell id="vJH0OtKHY2Miuph9InEm-2" value="&lt;font style=&quot;font-size: 18px;&quot;&gt;&lt;b&gt;DataSource 0&lt;/b&gt;&lt;/font&gt;" style="rounded=1;whiteSpace=wrap;html=1;fillColor=#cdeb8b;strokeColor=#36393d;" parent="1" vertex="1">
          <mxGeometry x="279" y="500" width="140" height="50" as="geometry" />
        </mxCell>
        <mxCell id="vJH0OtKHY2Miuph9InEm-3" value="&lt;font style=&quot;font-size: 18px;&quot;&gt;&lt;b&gt;DataSource 1&lt;/b&gt;&lt;/font&gt;" style="rounded=1;whiteSpace=wrap;html=1;fillColor=#cdeb8b;strokeColor=#36393d;" parent="1" vertex="1">
          <mxGeometry x="444" y="500" width="140" height="50" as="geometry" />
        </mxCell>
        <mxCell id="vJH0OtKHY2Miuph9InEm-4" value="&lt;font style=&quot;font-size: 18px;&quot;&gt;&lt;b&gt;DataSource 2&lt;/b&gt;&lt;/font&gt;" style="rounded=1;whiteSpace=wrap;html=1;fillColor=#cdeb8b;strokeColor=#36393d;" parent="1" vertex="1">
          <mxGeometry x="609" y="500" width="140" height="50" as="geometry" />
        </mxCell>
        <mxCell id="vJH0OtKHY2Miuph9InEm-5" value="&lt;font style=&quot;font-size: 18px;&quot;&gt;&lt;b&gt;RoutingDataSource&lt;/b&gt;&lt;/font&gt;" style="rounded=1;whiteSpace=wrap;html=1;fillColor=#ffcc99;strokeColor=#36393d;" parent="1" vertex="1">
          <mxGeometry x="279" y="390" width="470" height="40" as="geometry" />
        </mxCell>
        <mxCell id="vJH0OtKHY2Miuph9InEm-6" value="&lt;b&gt;&lt;font style=&quot;font-size: 18px;&quot;&gt;RoutingRule&lt;/font&gt;&lt;/b&gt;" style="rounded=1;whiteSpace=wrap;html=1;fillColor=#ffcc99;strokeColor=#36393d;" parent="1" vertex="1">
          <mxGeometry x="279" y="440" width="140" height="50" as="geometry" />
        </mxCell>
        <mxCell id="vJH0OtKHY2Miuph9InEm-7" value="&lt;b&gt;&lt;font style=&quot;font-size: 18px;&quot;&gt;LoadBalancer&lt;/font&gt;&lt;/b&gt;" style="rounded=1;whiteSpace=wrap;html=1;fillColor=#ffcc99;strokeColor=#36393d;" parent="1" vertex="1">
          <mxGeometry x="444" y="440" width="140" height="50" as="geometry" />
        </mxCell>
        <mxCell id="vJH0OtKHY2Miuph9InEm-8" value="&lt;b&gt;&lt;font style=&quot;font-size: 18px;&quot;&gt;RoutingContext&lt;/font&gt;&lt;/b&gt;" style="rounded=1;whiteSpace=wrap;html=1;fillColor=#ffcc99;strokeColor=#36393d;" parent="1" vertex="1">
          <mxGeometry x="609" y="440" width="140" height="50" as="geometry" />
        </mxCell>
        <mxCell id="vJH0OtKHY2Miuph9InEm-9" value="&lt;font style=&quot;font-size: 18px;&quot;&gt;&lt;b&gt;MyBatis Integration&lt;/b&gt;&lt;/font&gt;" style="rounded=1;whiteSpace=wrap;html=1;fillColor=#ffcccc;strokeColor=#36393d;" parent="1" vertex="1">
          <mxGeometry x="279" y="290" width="470" height="40" as="geometry" />
        </mxCell>
        <mxCell id="vJH0OtKHY2Miuph9InEm-10" value="&lt;font style=&quot;font-size: 18px;&quot;&gt;&lt;b&gt;Spring Integration&lt;/b&gt;&lt;/font&gt;" style="rounded=1;whiteSpace=wrap;html=1;fillColor=#d5e8d4;strokeColor=#82b366;gradientColor=#97d077;" parent="1" vertex="1">
          <mxGeometry x="279" y="190" width="470" height="40" as="geometry" />
        </mxCell>
        <mxCell id="vJH0OtKHY2Miuph9InEm-11" value="&lt;font style=&quot;font-size: 18px;&quot;&gt;&lt;b&gt;Spring Boot Configuration Support&lt;/b&gt;&lt;/font&gt;" style="rounded=1;whiteSpace=wrap;html=1;fillColor=#fff2cc;strokeColor=#d6b656;gradientColor=#ffd966;" parent="1" vertex="1">
          <mxGeometry x="280" y="-60" width="470" height="40" as="geometry" />
        </mxCell>
        <mxCell id="vJH0OtKHY2Miuph9InEm-12" value="&lt;b&gt;&lt;font style=&quot;font-size: 18px;&quot;&gt;ReadWriteSplittingRoutingDataSource&lt;/font&gt;&lt;/b&gt;" style="rounded=1;whiteSpace=wrap;html=1;fillColor=#ffcc99;strokeColor=#36393d;" parent="1" vertex="1">
          <mxGeometry x="279" y="340" width="470" height="40" as="geometry" />
        </mxCell>
        <mxCell id="vJH0OtKHY2Miuph9InEm-13" value="&lt;font style=&quot;font-size: 18px;&quot;&gt;&lt;b&gt;Application code &lt;br&gt;zero intrusion&lt;/b&gt;&lt;/font&gt;" style="rounded=1;whiteSpace=wrap;html=1;fillColor=#b1ddf0;strokeColor=#10739e;" parent="1" vertex="1">
          <mxGeometry x="100" y="-180" width="140" height="70" as="geometry" />
        </mxCell>
        <mxCell id="vJH0OtKHY2Miuph9InEm-14" value="&lt;font style=&quot;font-size: 18px;&quot;&gt;&lt;b&gt;Easy to use&lt;/b&gt;&lt;/font&gt;" style="rounded=1;whiteSpace=wrap;html=1;fillColor=#b1ddf0;strokeColor=#10739e;" parent="1" vertex="1">
          <mxGeometry x="100" y="-90" width="140" height="70" as="geometry" />
        </mxCell>
        <mxCell id="vJH0OtKHY2Miuph9InEm-15" value="&lt;b&gt;&lt;font style=&quot;font-size: 18px;&quot;&gt;Easy to expand&lt;/font&gt;&lt;/b&gt;" style="rounded=1;whiteSpace=wrap;html=1;fillColor=#b1ddf0;strokeColor=#10739e;" parent="1" vertex="1">
          <mxGeometry x="100" width="140" height="70" as="geometry" />
        </mxCell>
        <mxCell id="vJH0OtKHY2Miuph9InEm-16" value="&lt;font style=&quot;font-size: 18px;&quot;&gt;&lt;b style=&quot;&quot;&gt;Auto @Transactional&amp;nbsp;detection&lt;/b&gt;&lt;/font&gt;" style="rounded=1;whiteSpace=wrap;html=1;fillColor=#d5e8d4;strokeColor=#82b366;gradientColor=#97d077;" parent="1" vertex="1">
          <mxGeometry x="279" y="150" width="471" height="30" as="geometry" />
        </mxCell>
        <mxCell id="vJH0OtKHY2Miuph9InEm-17" value="&lt;font style=&quot;font-size: 18px;&quot;&gt;&lt;b&gt;Existing TX&amp;nbsp;&amp;nbsp;&lt;/b&gt;&lt;/font&gt;&lt;b&gt;&lt;font style=&quot;font-size: 18px;&quot;&gt;always route to write datasource&lt;/font&gt;&lt;/b&gt;" style="rounded=1;whiteSpace=wrap;html=1;fillColor=#d5e8d4;strokeColor=#82b366;gradientColor=#97d077;" parent="1" vertex="1">
          <mxGeometry x="280" y="110" width="470" height="30" as="geometry" />
        </mxCell>
        <mxCell id="vJH0OtKHY2Miuph9InEm-18" value="&lt;b&gt;&lt;font style=&quot;font-size: 18px;&quot;&gt;Native datasource configuration zero intrusion&lt;/font&gt;&lt;/b&gt;" style="rounded=1;whiteSpace=wrap;html=1;fillColor=#fff2cc;strokeColor=#d6b656;gradientColor=#ffd966;" parent="1" vertex="1">
          <mxGeometry x="279.5" y="-110" width="470" height="40" as="geometry" />
        </mxCell>
        <mxCell id="vJH0OtKHY2Miuph9InEm-21" style="edgeStyle=orthogonalEdgeStyle;rounded=0;orthogonalLoop=1;jettySize=auto;html=1;" parent="1" source="vJH0OtKHY2Miuph9InEm-19" target="vJH0OtKHY2Miuph9InEm-20" edge="1">
          <mxGeometry relative="1" as="geometry" />
        </mxCell>
        <mxCell id="vJH0OtKHY2Miuph9InEm-19" value="&lt;font style=&quot;font-size: 18px;&quot;&gt;&lt;b&gt;RoutingDataSource&lt;/b&gt;&lt;/font&gt;" style="rounded=1;whiteSpace=wrap;html=1;fillColor=#ffcc99;strokeColor=#36393d;" parent="1" vertex="1">
          <mxGeometry x="367" y="720" width="180" height="55" as="geometry" />
        </mxCell>
        <mxCell id="vJH0OtKHY2Miuph9InEm-23" style="edgeStyle=orthogonalEdgeStyle;rounded=0;orthogonalLoop=1;jettySize=auto;html=1;" parent="1" source="vJH0OtKHY2Miuph9InEm-20" target="vJH0OtKHY2Miuph9InEm-22" edge="1">
          <mxGeometry relative="1" as="geometry" />
        </mxCell>
        <mxCell id="vJH0OtKHY2Miuph9InEm-31" value="" style="edgeStyle=orthogonalEdgeStyle;rounded=0;orthogonalLoop=1;jettySize=auto;html=1;dashed=1;" parent="1" source="vJH0OtKHY2Miuph9InEm-20" target="vJH0OtKHY2Miuph9InEm-30" edge="1">
          <mxGeometry relative="1" as="geometry" />
        </mxCell>
        <mxCell id="vJH0OtKHY2Miuph9InEm-35" value="" style="edgeStyle=orthogonalEdgeStyle;rounded=0;orthogonalLoop=1;jettySize=auto;html=1;dashed=1;" parent="1" source="vJH0OtKHY2Miuph9InEm-20" target="vJH0OtKHY2Miuph9InEm-34" edge="1">
          <mxGeometry relative="1" as="geometry" />
        </mxCell>
        <mxCell id="vJH0OtKHY2Miuph9InEm-20" value="&lt;b&gt;&lt;font style=&quot;font-size: 18px;&quot;&gt;RoutingRule&lt;/font&gt;&lt;/b&gt;" style="rounded=1;whiteSpace=wrap;html=1;fillColor=#ffcc99;strokeColor=#36393d;" parent="1" vertex="1">
          <mxGeometry x="387" y="800" width="140" height="50" as="geometry" />
        </mxCell>
        <mxCell id="vJH0OtKHY2Miuph9InEm-27" style="edgeStyle=orthogonalEdgeStyle;rounded=0;orthogonalLoop=1;jettySize=auto;html=1;" parent="1" source="vJH0OtKHY2Miuph9InEm-22" target="vJH0OtKHY2Miuph9InEm-25" edge="1">
          <mxGeometry relative="1" as="geometry" />
        </mxCell>
        <mxCell id="vJH0OtKHY2Miuph9InEm-28" style="edgeStyle=orthogonalEdgeStyle;rounded=0;orthogonalLoop=1;jettySize=auto;html=1;exitX=0.5;exitY=1;exitDx=0;exitDy=0;" parent="1" source="vJH0OtKHY2Miuph9InEm-22" target="vJH0OtKHY2Miuph9InEm-24" edge="1">
          <mxGeometry relative="1" as="geometry" />
        </mxCell>
        <mxCell id="vJH0OtKHY2Miuph9InEm-29" style="edgeStyle=orthogonalEdgeStyle;rounded=0;orthogonalLoop=1;jettySize=auto;html=1;exitX=0.5;exitY=1;exitDx=0;exitDy=0;" parent="1" source="vJH0OtKHY2Miuph9InEm-22" target="vJH0OtKHY2Miuph9InEm-26" edge="1">
          <mxGeometry relative="1" as="geometry" />
        </mxCell>
        <mxCell id="vJH0OtKHY2Miuph9InEm-22" value="&lt;b&gt;&lt;font style=&quot;font-size: 18px;&quot;&gt;LoadBalancer&lt;/font&gt;&lt;/b&gt;" style="rounded=1;whiteSpace=wrap;html=1;fillColor=#ffcc99;strokeColor=#36393d;" parent="1" vertex="1">
          <mxGeometry x="387" y="875" width="140" height="50" as="geometry" />
        </mxCell>
        <mxCell id="vJH0OtKHY2Miuph9InEm-24" value="&lt;font style=&quot;font-size: 18px;&quot;&gt;&lt;b&gt;DataSource 0&lt;/b&gt;&lt;/font&gt;" style="rounded=1;whiteSpace=wrap;html=1;fillColor=#cdeb8b;strokeColor=#36393d;" parent="1" vertex="1">
          <mxGeometry x="200" y="970" width="140" height="50" as="geometry" />
        </mxCell>
        <mxCell id="vJH0OtKHY2Miuph9InEm-25" value="&lt;font style=&quot;font-size: 18px;&quot;&gt;&lt;b&gt;DataSource 1&lt;/b&gt;&lt;/font&gt;" style="rounded=1;whiteSpace=wrap;html=1;fillColor=#cdeb8b;strokeColor=#36393d;" parent="1" vertex="1">
          <mxGeometry x="387" y="970" width="140" height="50" as="geometry" />
        </mxCell>
        <mxCell id="vJH0OtKHY2Miuph9InEm-26" value="&lt;font style=&quot;font-size: 18px;&quot;&gt;&lt;b&gt;DataSource 2&lt;/b&gt;&lt;/font&gt;" style="rounded=1;whiteSpace=wrap;html=1;fillColor=#cdeb8b;strokeColor=#36393d;" parent="1" vertex="1">
          <mxGeometry x="570" y="970" width="140" height="50" as="geometry" />
        </mxCell>
        <mxCell id="vJH0OtKHY2Miuph9InEm-30" value="&lt;font style=&quot;font-size: 18px;&quot;&gt;&lt;b&gt;SQL Parser&lt;/b&gt;&lt;/font&gt;" style="whiteSpace=wrap;html=1;fillColor=#fad9d5;strokeColor=#ae4132;rounded=1;" parent="1" vertex="1">
          <mxGeometry x="570" y="795" width="140" height="60" as="geometry" />
        </mxCell>
        <mxCell id="vJH0OtKHY2Miuph9InEm-32" value="&lt;font style=&quot;font-size: 24px;&quot;&gt;&lt;b style=&quot;&quot;&gt;DevX RoutingDataSource&amp;nbsp;Architecture&lt;/b&gt;&lt;/font&gt;" style="text;html=1;strokeColor=none;fillColor=none;align=center;verticalAlign=middle;whiteSpace=wrap;rounded=0;" parent="1" vertex="1">
          <mxGeometry x="277.25" y="-280" width="470" height="40" as="geometry" />
        </mxCell>
        <mxCell id="vJH0OtKHY2Miuph9InEm-33" value="&lt;font style=&quot;font-size: 24px;&quot;&gt;&lt;b style=&quot;&quot;&gt;How it work&lt;/b&gt;&lt;/font&gt;" style="text;html=1;strokeColor=none;fillColor=none;align=center;verticalAlign=middle;whiteSpace=wrap;rounded=0;" parent="1" vertex="1">
          <mxGeometry x="222" y="660" width="470" height="40" as="geometry" />
        </mxCell>
        <mxCell id="vJH0OtKHY2Miuph9InEm-34" value="&lt;font style=&quot;font-size: 18px;&quot;&gt;&lt;b&gt;RoutingContext&lt;/b&gt;&lt;/font&gt;" style="whiteSpace=wrap;html=1;fillColor=#fad9d5;strokeColor=#ae4132;rounded=1;" parent="1" vertex="1">
          <mxGeometry x="190" y="795" width="150" height="60" as="geometry" />
        </mxCell>
        <mxCell id="DO5tkAUlz4x5aCXxbuHO-1" value="&lt;font style=&quot;font-size: 18px;&quot;&gt;&lt;b&gt;Auto&amp;nbsp;initialize DataSource&lt;/b&gt;&lt;/font&gt;" style="rounded=1;whiteSpace=wrap;html=1;fillColor=#fff2cc;strokeColor=#d6b656;gradientColor=#ffd966;" parent="1" vertex="1">
          <mxGeometry x="279" y="-160" width="230" height="40" as="geometry" />
        </mxCell>
        <mxCell id="DO5tkAUlz4x5aCXxbuHO-2" value="&lt;font style=&quot;font-size: 18px;&quot;&gt;&lt;b&gt;DataSourceInitializer&lt;/b&gt;&lt;/font&gt;" style="rounded=1;whiteSpace=wrap;html=1;fillColor=#fff2cc;strokeColor=#d6b656;gradientColor=#ffd966;" parent="1" vertex="1">
          <mxGeometry x="524" y="-160" width="226" height="40" as="geometry" />
        </mxCell>
        <mxCell id="DO5tkAUlz4x5aCXxbuHO-3" value="&lt;font style=&quot;&quot;&gt;&lt;font style=&quot;&quot;&gt;&lt;b&gt;&lt;font style=&quot;font-size: 18px;&quot;&gt;Record &lt;/font&gt;&lt;/b&gt;&lt;b style=&quot;font-size: 18px;&quot;&gt;Executing&lt;/b&gt;&lt;b style=&quot;font-size: 18px;&quot;&gt;&amp;nbsp;&lt;/b&gt;&lt;/font&gt;&lt;b style=&quot;font-size: 18px;&quot;&gt;SQL&lt;/b&gt;&lt;/font&gt;" style="rounded=1;whiteSpace=wrap;html=1;fillColor=#ffcccc;strokeColor=#36393d;" parent="1" vertex="1">
          <mxGeometry x="279" y="240" width="221" height="40" as="geometry" />
        </mxCell>
        <mxCell id="DO5tkAUlz4x5aCXxbuHO-4" value="&lt;b&gt;&lt;font style=&quot;font-size: 18px;&quot;&gt;ExecutingSqlInterceptor&lt;/font&gt;&lt;/b&gt;" style="rounded=1;whiteSpace=wrap;html=1;fillColor=#ffcccc;strokeColor=#36393d;" parent="1" vertex="1">
          <mxGeometry x="516.75" y="240" width="230.5" height="40" as="geometry" />
        </mxCell>
        <mxCell id="DO5tkAUlz4x5aCXxbuHO-5" value="&lt;font style=&quot;font-size: 18px;&quot;&gt;&lt;b&gt;Readonly TX&amp;nbsp;&amp;nbsp;&lt;/b&gt;&lt;/font&gt;&lt;b&gt;&lt;font style=&quot;font-size: 18px;&quot;&gt;always route to read datasource&lt;/font&gt;&lt;/b&gt;" style="rounded=1;whiteSpace=wrap;html=1;fillColor=#d5e8d4;strokeColor=#82b366;gradientColor=#97d077;" parent="1" vertex="1">
          <mxGeometry x="280" y="70" width="470" height="30" as="geometry" />
        </mxCell>
        <mxCell id="DO5tkAUlz4x5aCXxbuHO-7" value="&lt;b&gt;&lt;font style=&quot;font-size: 18px;&quot;&gt;ExecuteWithoutResultConsumerRoutingSupport&lt;/font&gt;&lt;/b&gt;" style="rounded=1;whiteSpace=wrap;html=1;fillColor=#d5e8d4;strokeColor=#82b366;gradientColor=#97d077;" parent="1" vertex="1">
          <mxGeometry x="280" y="30" width="470" height="30" as="geometry" />
        </mxCell>
        <mxCell id="DO5tkAUlz4x5aCXxbuHO-8" value="&lt;b&gt;&lt;font style=&quot;font-size: 18px;&quot;&gt;TransactionCallbackRoutingSupport&lt;/font&gt;&lt;/b&gt;" style="rounded=1;whiteSpace=wrap;html=1;fillColor=#d5e8d4;strokeColor=#82b366;gradientColor=#97d077;" parent="1" vertex="1">
          <mxGeometry x="280" y="-10" width="470" height="30" as="geometry" />
        </mxCell>
        <mxCell id="DO5tkAUlz4x5aCXxbuHO-9" value="&lt;font style=&quot;font-size: 18px;&quot;&gt;&lt;b&gt;Spans Thread Support&lt;/b&gt;&lt;/font&gt;" style="rounded=1;whiteSpace=wrap;html=1;fillColor=#e6d0de;strokeColor=#996185;gradientColor=#d5739d;" parent="1" vertex="1">
          <mxGeometry x="279" y="-210" width="470" height="40" as="geometry" />
        </mxCell>
        <mxCell id="aRDAIjeJ8f5W-PLzRV40-1" value="" style="rounded=0;whiteSpace=wrap;html=1;fillColor=#dae8fc;strokeColor=#6c8ebf;" parent="1" vertex="1">
          <mxGeometry x="229" y="1200" width="510" height="780" as="geometry" />
        </mxCell>
        <mxCell id="aRDAIjeJ8f5W-PLzRV40-2" value="&lt;font style=&quot;font-size: 18px;&quot;&gt;&lt;b&gt;DataSource 0&lt;/b&gt;&lt;/font&gt;" style="rounded=1;whiteSpace=wrap;html=1;fillColor=#cdeb8b;strokeColor=#36393d;" parent="1" vertex="1">
          <mxGeometry x="249" y="1920" width="140" height="50" as="geometry" />
        </mxCell>
        <mxCell id="aRDAIjeJ8f5W-PLzRV40-3" value="&lt;font style=&quot;font-size: 18px;&quot;&gt;&lt;b&gt;DataSource 1&lt;/b&gt;&lt;/font&gt;" style="rounded=1;whiteSpace=wrap;html=1;fillColor=#cdeb8b;strokeColor=#36393d;" parent="1" vertex="1">
          <mxGeometry x="414" y="1920" width="140" height="50" as="geometry" />
        </mxCell>
        <mxCell id="aRDAIjeJ8f5W-PLzRV40-4" value="&lt;font style=&quot;font-size: 18px;&quot;&gt;&lt;b&gt;DataSource 2&lt;/b&gt;&lt;/font&gt;" style="rounded=1;whiteSpace=wrap;html=1;fillColor=#cdeb8b;strokeColor=#36393d;" parent="1" vertex="1">
          <mxGeometry x="579" y="1920" width="140" height="50" as="geometry" />
        </mxCell>
        <mxCell id="aRDAIjeJ8f5W-PLzRV40-5" value="&lt;font style=&quot;font-size: 18px;&quot;&gt;&lt;b&gt;RoutingDataSource&lt;/b&gt;&lt;/font&gt;" style="rounded=1;whiteSpace=wrap;html=1;fillColor=#ffcc99;strokeColor=#36393d;" parent="1" vertex="1">
          <mxGeometry x="249" y="1810" width="470" height="40" as="geometry" />
        </mxCell>
        <mxCell id="aRDAIjeJ8f5W-PLzRV40-34" value="" style="edgeStyle=orthogonalEdgeStyle;rounded=0;orthogonalLoop=1;jettySize=auto;html=1;strokeWidth=3;" parent="1" source="aRDAIjeJ8f5W-PLzRV40-6" target="aRDAIjeJ8f5W-PLzRV40-33" edge="1">
          <mxGeometry relative="1" as="geometry" />
        </mxCell>
        <mxCell id="aRDAIjeJ8f5W-PLzRV40-6" value="&lt;b&gt;&lt;font style=&quot;font-size: 18px;&quot;&gt;RoutingRule&lt;/font&gt;&lt;/b&gt;" style="rounded=1;whiteSpace=wrap;html=1;fillColor=#ffcc99;strokeColor=#36393d;" parent="1" vertex="1">
          <mxGeometry x="579" y="1860" width="140" height="50" as="geometry" />
        </mxCell>
        <mxCell id="aRDAIjeJ8f5W-PLzRV40-7" value="&lt;b&gt;&lt;font style=&quot;font-size: 18px;&quot;&gt;LoadBalancer&lt;/font&gt;&lt;/b&gt;" style="rounded=1;whiteSpace=wrap;html=1;fillColor=#ffcc99;strokeColor=#36393d;" parent="1" vertex="1">
          <mxGeometry x="414" y="1860" width="140" height="50" as="geometry" />
        </mxCell>
        <mxCell id="aRDAIjeJ8f5W-PLzRV40-8" value="&lt;b&gt;&lt;font style=&quot;font-size: 18px;&quot;&gt;RoutingContext&lt;/font&gt;&lt;/b&gt;" style="rounded=1;whiteSpace=wrap;html=1;fillColor=#ffcc99;strokeColor=#36393d;" parent="1" vertex="1">
          <mxGeometry x="250" y="1860" width="140" height="50" as="geometry" />
        </mxCell>
        <mxCell id="aRDAIjeJ8f5W-PLzRV40-29" value="" style="edgeStyle=orthogonalEdgeStyle;rounded=0;orthogonalLoop=1;jettySize=auto;html=1;strokeWidth=3;" parent="1" source="aRDAIjeJ8f5W-PLzRV40-9" target="aRDAIjeJ8f5W-PLzRV40-28" edge="1">
          <mxGeometry relative="1" as="geometry" />
        </mxCell>
        <mxCell id="aRDAIjeJ8f5W-PLzRV40-9" value="&lt;font style=&quot;font-size: 18px;&quot;&gt;&lt;b&gt;MyBatis Integration&lt;/b&gt;&lt;/font&gt;" style="rounded=1;whiteSpace=wrap;html=1;fillColor=#ffcccc;strokeColor=#36393d;" parent="1" vertex="1">
          <mxGeometry x="249" y="1710" width="470" height="40" as="geometry" />
        </mxCell>
        <mxCell id="aRDAIjeJ8f5W-PLzRV40-10" value="&lt;font style=&quot;font-size: 18px;&quot;&gt;&lt;b&gt;Spring Integration&lt;/b&gt;&lt;/font&gt;" style="rounded=1;whiteSpace=wrap;html=1;fillColor=#d5e8d4;strokeColor=#82b366;gradientColor=#97d077;" parent="1" vertex="1">
          <mxGeometry x="249" y="1660" width="470" height="40" as="geometry" />
        </mxCell>
        <mxCell id="aRDAIjeJ8f5W-PLzRV40-11" value="&lt;font style=&quot;font-size: 18px;&quot;&gt;&lt;b&gt;Spring Boot Configuration Support&lt;/b&gt;&lt;/font&gt;" style="rounded=1;whiteSpace=wrap;html=1;fillColor=#fff2cc;strokeColor=#d6b656;gradientColor=#ffd966;" parent="1" vertex="1">
          <mxGeometry x="250" y="1360" width="470" height="40" as="geometry" />
        </mxCell>
        <mxCell id="aRDAIjeJ8f5W-PLzRV40-12" value="&lt;b&gt;&lt;font style=&quot;font-size: 18px;&quot;&gt;JDBC API&lt;/font&gt;&lt;/b&gt;" style="rounded=1;whiteSpace=wrap;html=1;fillColor=#60a917;strokeColor=#2D7600;fontColor=#ffffff;" parent="1" vertex="1">
          <mxGeometry x="249" y="1760" width="470" height="40" as="geometry" />
        </mxCell>
        <mxCell id="aRDAIjeJ8f5W-PLzRV40-13" value="&lt;font style=&quot;font-size: 18px;&quot;&gt;&lt;b&gt;Application code &lt;br&gt;zero intrusion&lt;/b&gt;&lt;/font&gt;" style="rounded=1;whiteSpace=wrap;html=1;fillColor=#b1ddf0;strokeColor=#10739e;" parent="1" vertex="1">
          <mxGeometry x="70" y="1240" width="140" height="70" as="geometry" />
        </mxCell>
        <mxCell id="aRDAIjeJ8f5W-PLzRV40-14" value="&lt;font style=&quot;font-size: 18px;&quot;&gt;&lt;b&gt;Easy to use&lt;/b&gt;&lt;/font&gt;" style="rounded=1;whiteSpace=wrap;html=1;fillColor=#b1ddf0;strokeColor=#10739e;" parent="1" vertex="1">
          <mxGeometry x="70" y="1330" width="140" height="70" as="geometry" />
        </mxCell>
        <mxCell id="aRDAIjeJ8f5W-PLzRV40-15" value="&lt;b&gt;&lt;font style=&quot;font-size: 18px;&quot;&gt;Easy to expand&lt;/font&gt;&lt;/b&gt;" style="rounded=1;whiteSpace=wrap;html=1;fillColor=#b1ddf0;strokeColor=#10739e;" parent="1" vertex="1">
          <mxGeometry x="70" y="1420" width="140" height="70" as="geometry" />
        </mxCell>
        <mxCell id="aRDAIjeJ8f5W-PLzRV40-16" value="&lt;font style=&quot;font-size: 18px;&quot;&gt;&lt;b style=&quot;&quot;&gt;Auto @Transactional&amp;nbsp;detection&lt;/b&gt;&lt;/font&gt;" style="rounded=1;whiteSpace=wrap;html=1;fillColor=#d5e8d4;strokeColor=#82b366;gradientColor=#97d077;" parent="1" vertex="1">
          <mxGeometry x="249" y="1570" width="471" height="30" as="geometry" />
        </mxCell>
        <mxCell id="aRDAIjeJ8f5W-PLzRV40-17" value="&lt;font style=&quot;font-size: 18px;&quot;&gt;&lt;b&gt;Existing TX&amp;nbsp;&amp;nbsp;&lt;/b&gt;&lt;/font&gt;&lt;b&gt;&lt;font style=&quot;font-size: 18px;&quot;&gt;always route to write datasource&lt;/font&gt;&lt;/b&gt;" style="rounded=1;whiteSpace=wrap;html=1;fillColor=#d5e8d4;strokeColor=#82b366;gradientColor=#97d077;" parent="1" vertex="1">
          <mxGeometry x="250" y="1530" width="470" height="30" as="geometry" />
        </mxCell>
        <mxCell id="aRDAIjeJ8f5W-PLzRV40-18" value="&lt;b&gt;&lt;font style=&quot;font-size: 18px;&quot;&gt;Native datasource configuration zero intrusion&lt;/font&gt;&lt;/b&gt;" style="rounded=1;whiteSpace=wrap;html=1;fillColor=#fff2cc;strokeColor=#d6b656;gradientColor=#ffd966;" parent="1" vertex="1">
          <mxGeometry x="249.5" y="1310" width="470" height="40" as="geometry" />
        </mxCell>
        <mxCell id="aRDAIjeJ8f5W-PLzRV40-19" value="&lt;font style=&quot;font-size: 24px;&quot;&gt;&lt;b style=&quot;&quot;&gt;DevX RoutingDataSource&amp;nbsp;Architecture&lt;/b&gt;&lt;/font&gt;" style="text;html=1;strokeColor=none;fillColor=none;align=center;verticalAlign=middle;whiteSpace=wrap;rounded=0;" parent="1" vertex="1">
          <mxGeometry x="249" y="1150" width="470" height="40" as="geometry" />
        </mxCell>
        <mxCell id="aRDAIjeJ8f5W-PLzRV40-20" value="&lt;font style=&quot;font-size: 18px;&quot;&gt;&lt;b&gt;Auto&amp;nbsp;initialize DataSource&lt;/b&gt;&lt;/font&gt;" style="rounded=1;whiteSpace=wrap;html=1;fillColor=#fff2cc;strokeColor=#d6b656;gradientColor=#ffd966;" parent="1" vertex="1">
          <mxGeometry x="249" y="1260" width="230" height="40" as="geometry" />
        </mxCell>
        <mxCell id="aRDAIjeJ8f5W-PLzRV40-21" value="&lt;font style=&quot;font-size: 18px;&quot;&gt;&lt;b&gt;DataSourceInitializer&lt;/b&gt;&lt;/font&gt;" style="rounded=1;whiteSpace=wrap;html=1;fillColor=#fff2cc;strokeColor=#d6b656;gradientColor=#ffd966;" parent="1" vertex="1">
          <mxGeometry x="494" y="1260" width="226" height="40" as="geometry" />
        </mxCell>
        <mxCell id="aRDAIjeJ8f5W-PLzRV40-24" value="&lt;font style=&quot;font-size: 18px;&quot;&gt;&lt;b&gt;Readonly TX&amp;nbsp;&amp;nbsp;&lt;/b&gt;&lt;/font&gt;&lt;b&gt;&lt;font style=&quot;font-size: 18px;&quot;&gt;always route to read datasource&lt;/font&gt;&lt;/b&gt;" style="rounded=1;whiteSpace=wrap;html=1;fillColor=#d5e8d4;strokeColor=#82b366;gradientColor=#97d077;" parent="1" vertex="1">
          <mxGeometry x="250" y="1490" width="470" height="30" as="geometry" />
        </mxCell>
        <mxCell id="aRDAIjeJ8f5W-PLzRV40-25" value="&lt;b&gt;&lt;font style=&quot;font-size: 18px;&quot;&gt;ExecuteWithoutResultConsumerRoutingSupport&lt;/font&gt;&lt;/b&gt;" style="rounded=1;whiteSpace=wrap;html=1;fillColor=#d5e8d4;strokeColor=#82b366;gradientColor=#97d077;" parent="1" vertex="1">
          <mxGeometry x="250" y="1450" width="470" height="30" as="geometry" />
        </mxCell>
        <mxCell id="aRDAIjeJ8f5W-PLzRV40-26" value="&lt;b&gt;&lt;font style=&quot;font-size: 18px;&quot;&gt;TransactionCallbackRoutingSupport&lt;/font&gt;&lt;/b&gt;" style="rounded=1;whiteSpace=wrap;html=1;fillColor=#d5e8d4;strokeColor=#82b366;gradientColor=#97d077;" parent="1" vertex="1">
          <mxGeometry x="250" y="1410" width="470" height="30" as="geometry" />
        </mxCell>
        <mxCell id="aRDAIjeJ8f5W-PLzRV40-27" value="&lt;font style=&quot;font-size: 18px;&quot;&gt;&lt;b&gt;Spans Thread Support&lt;/b&gt;&lt;/font&gt;" style="rounded=1;whiteSpace=wrap;html=1;fillColor=#e6d0de;strokeColor=#996185;gradientColor=#d5739d;" parent="1" vertex="1">
          <mxGeometry x="249" y="1210" width="470" height="40" as="geometry" />
        </mxCell>
        <mxCell id="aRDAIjeJ8f5W-PLzRV40-28" value="&lt;font style=&quot;font-size: 18px;&quot;&gt;&lt;b&gt;Routing With Method Name&lt;/b&gt;&lt;/font&gt;" style="whiteSpace=wrap;html=1;fillColor=#ffcccc;strokeColor=#36393d;rounded=1;" parent="1" vertex="1">
          <mxGeometry x="820" y="1700" width="250" height="60" as="geometry" />
        </mxCell>
        <mxCell id="aRDAIjeJ8f5W-PLzRV40-32" value="" style="edgeStyle=orthogonalEdgeStyle;rounded=0;orthogonalLoop=1;jettySize=auto;html=1;strokeWidth=3;" parent="1" source="aRDAIjeJ8f5W-PLzRV40-30" target="aRDAIjeJ8f5W-PLzRV40-31" edge="1">
          <mxGeometry relative="1" as="geometry" />
        </mxCell>
        <mxCell id="aRDAIjeJ8f5W-PLzRV40-30" value="&lt;font style=&quot;font-size: 18px;&quot;&gt;&lt;b&gt;Spring Data JPA&lt;/b&gt;&lt;/font&gt;" style="rounded=1;whiteSpace=wrap;html=1;fillColor=#d5e8d4;strokeColor=#82b366;gradientColor=#97d077;" parent="1" vertex="1">
          <mxGeometry x="249" y="1610" width="470" height="40" as="geometry" />
        </mxCell>
        <mxCell id="aRDAIjeJ8f5W-PLzRV40-31" value="&lt;b style=&quot;border-color: var(--border-color); font-size: 18px;&quot;&gt;Routing With Method Name&lt;br&gt;（Experimental stage）&lt;br&gt;&lt;/b&gt;" style="whiteSpace=wrap;html=1;fillColor=#d5e8d4;strokeColor=#82b366;rounded=1;gradientColor=#97d077;" parent="1" vertex="1">
          <mxGeometry x="820" y="1600" width="250" height="60" as="geometry" />
        </mxCell>
        <mxCell id="aRDAIjeJ8f5W-PLzRV40-33" value="" style="whiteSpace=wrap;html=1;fillColor=#ffcc99;strokeColor=#36393d;rounded=1;" parent="1" vertex="1">
          <mxGeometry x="839" y="1790" width="231" height="227.5" as="geometry" />
        </mxCell>
        <mxCell id="aRDAIjeJ8f5W-PLzRV40-35" value="&lt;b&gt;&lt;font style=&quot;font-size: 18px;&quot;&gt;RoutingRule 1&lt;/font&gt;&lt;/b&gt;" style="rounded=1;whiteSpace=wrap;html=1;fillColor=#b0e3e6;strokeColor=#0e8088;" parent="1" vertex="1">
          <mxGeometry x="867" y="1807.5" width="185" height="50" as="geometry" />
        </mxCell>
        <mxCell id="aRDAIjeJ8f5W-PLzRV40-36" value="&lt;b&gt;&lt;font style=&quot;font-size: 18px;&quot;&gt;RoutingRule 2&lt;/font&gt;&lt;/b&gt;" style="rounded=1;whiteSpace=wrap;html=1;fillColor=#b0e3e6;strokeColor=#0e8088;" parent="1" vertex="1">
          <mxGeometry x="867" y="1877.5" width="185" height="50" as="geometry" />
        </mxCell>
        <mxCell id="aRDAIjeJ8f5W-PLzRV40-37" value="&lt;b&gt;&lt;font style=&quot;font-size: 18px;&quot;&gt;RoutingRule 3&lt;/font&gt;&lt;/b&gt;" style="rounded=1;whiteSpace=wrap;html=1;fillColor=#b0e3e6;strokeColor=#0e8088;" parent="1" vertex="1">
          <mxGeometry x="867" y="1947.5" width="185" height="50" as="geometry" />
        </mxCell>
        <mxCell id="zuOMxPo34sfkS7YnPlBM-1" value="&lt;div&gt;&lt;font style=&quot;font-size: 14px;&quot;&gt;SELECT customers.customer_name, orders.order_id, order_details.product_name, order_details.unit_price, order_details.quantity, (order_details.unit_price * order_details.quantity) AS total_price&lt;/font&gt;&lt;/div&gt;&lt;div&gt;&lt;font size=&quot;3&quot;&gt;FROM customers&lt;/font&gt;&lt;/div&gt;&lt;div&gt;&lt;font size=&quot;3&quot;&gt;INNER JOIN orders&lt;/font&gt;&lt;/div&gt;&lt;div&gt;&lt;font size=&quot;3&quot;&gt;ON customers.customer_id = orders.customer_id&lt;/font&gt;&lt;/div&gt;&lt;div&gt;&lt;font size=&quot;3&quot;&gt;INNER JOIN order_details&lt;/font&gt;&lt;/div&gt;&lt;div&gt;&lt;font size=&quot;3&quot;&gt;ON orders.order_id = order_details.order_id&lt;/font&gt;&lt;/div&gt;&lt;div&gt;&lt;font size=&quot;3&quot;&gt;WHERE customers.country = &#39;USA&#39;&lt;/font&gt;&lt;/div&gt;&lt;div&gt;&lt;font size=&quot;3&quot;&gt;AND orders.order_date BETWEEN &#39;2022-01-01&#39; AND &#39;2022-12-31&#39;&lt;/font&gt;&lt;/div&gt;&lt;div&gt;&lt;font size=&quot;3&quot;&gt;AND order_details.quantity &amp;gt; 10&lt;/font&gt;&lt;/div&gt;&lt;div&gt;&lt;font style=&quot;&quot; size=&quot;3&quot;&gt;ORDER BY customers.customer_name ASC, orders.order_date DESC;&lt;/font&gt;&lt;/div&gt;" style="text;html=1;strokeColor=none;fillColor=none;align=center;verticalAlign=middle;whiteSpace=wrap;rounded=0;" vertex="1" parent="1">
          <mxGeometry x="50" y="2120" width="410" height="290" as="geometry" />
        </mxCell>
        <mxCell id="zuOMxPo34sfkS7YnPlBM-2" value="" style="shape=image;verticalLabelPosition=bottom;labelBackgroundColor=default;verticalAlign=top;aspect=fixed;imageAspect=0;image=data:image/png,iVBORw0KGgoAAAANSUhEUgAAArgAAAGxCAYAAACJJ8V6AAAgAElEQVR4nOy9a3BU15nv/duNQBLdLYxoSUgEXTCSuEg2sbhkEBgBtsf2y8WXY2dSQ/LBCTGuVL2T82nKYxOPx3Fc8+lk3qpTDnHiD2c8ScU+iQ34JB7HBmHAZzBSYiyBdTEggZHoC+LS3UgC0fv9sHt3777fdX1+VVShvdflWWvty7+f9ay1lWd/8F0V4MKFC9hdbuZa5yFo+FQrz23dxC73X9h4cmCizREEIQl8agHVD8/jLkWJOKe63fQc8zAa5ZwgREOup+jMxH6Zt6qMSrNnWrZNZzqNqyICVxAEQRAEQZhOmCbaAEEQBEEQBEHIJiJwBUEQBEEQhGmFCFxBEARBEARhWiECVxAEQRAEQZhWiMAVBEEQBEEQphV5E21ANIoKVJaXp5bny0G4MTI1tq4QBEEQBEEQcsekFLjWQli3RE0pz9fXFG6M5MggQRAEQRAEYcogIQqCIAiCIAjCtEIEbg54aM02jm6pp1ZVo/4tJI/PXM26lvt5YPMm1tWYs1JmWcP9bF1TjWUcx2Mi6kxkw2SwScg9vtJNPPfC87z04j/xXEtpVspsfOp5fvLsJsrG8dqZiDoT2TAZbMol0719wvRmUoYouNwKv/9L6nkmAz7VSo11oq0YH3ylK3hoZQnuvjZOnPdiqWniW9WWkDSq6qHvZBtnvamPj08tYdWaSuhv56Pz3myZnZoN/jbqqJ5+Tnx2Hk8WP1Wo95vej7nAp5qxFOak6KziU83Urm2ixhLav7H6xqeWsGrzckoN4xGvH/Xyq80uOg+fxm7IF379Ok638oUj1I54afRz0fKF2FC6iR/tXs/Q8U8pbl7P0P6f8btOLX1Zy272bCgJSa+qTo698UsOxSkzZl3qSr6zez0c/zUvtzpSzp8NfA1P8vJj9YG/Vedx9v2iNaTvM0XvN8exX/F6jtrpU0spKc5J0VnBp5bywJ7vs2HoAP/yzumJNgdIPPbRrneArvde5XedCmUtu3m2eYh3f/q/6YhyvSTKH7BDXcl3XtzBMkMZxjqilaGTy2tKyC0pCdzSslIefuhvOXDgINeuX4uaZsmSJaxbu45333uXkZH0gmLz81S+cVdqedzDKqNjmT0wfWoF/7rzPmg/yPOXlITHo2FS3Ow79D77AHLwveZUbMklPtVMbZUtQkyEC0CfuZq/WbOJateXfNzpTK0Si5lCvLgcHiB3bdVFEmeOhAgTS00T66qG6TgUfCD7SlfwN0ssWROiPtVMmc2Mw+mkxFaC5ZwnQjzHsi/W8WiYFC9nT37CWcjRdZm8LbEwCsSPQtqpidKtVZGitLxxOYWGH0DaD5LVrCO6yC1asowai0K4Q6qs4X4abC46DrVhVxR/OS3cQ1CsJkrjOd/Oh94VPLhiJWX20wkEnAvnGRc0R54JFwGaIP4nNvSkIVzKbBTjovuMndzeQ5qAwCDWgYBA+cMrrwYEiq/hSX60uSxrosGnlrKy3kZXdzf19cspO2yP6PtY9sU6Hg2T4uDQvtc4BDm6h5K3JRrlm3eygU/Z93ZnTuxLlWTHPvoPnuTtT5RfF7Bd773Ky4Z+bXzqh2xx/JJDrW/wcisB+/55Z3HaPyizSabXw0zHp65MLUTBPNdCcXExTz/9FHfNi1SgS5YsYcf27VitFvIL8tM2TF9klso/6xTwTk0v5mI2w7DXEzeVydvH/z38JU7b8tRDDMxzsSROlRN8aglLqsx4+vtDHpwmx5nselnLqqg2u7Cfv4nHXMmSsuwVPZUw/pgIF8i6OD/RX0jD5pUh06X2zk9CxsPkOEOHU8ViK4kIvfCZq1lZBQ5n6DXrU0sos4HzTFCU6uWUVNVgUdWk0gDgvUn8OyIcF84EOs/kOML//OkBuut2pB5iUGojtm8qt/jUlbQ023AePxrifTN1/j67HrHGjWyw9XDmiAunbT0tjdkreqqg93X38ex6xjO1J+djn8iOhid5thmO/vLVCJHY8c4bEy5ihdySkgf3/PlzHDh4kB3bt/P000/x9tvvBDy5uri9efMmb7/9DtevX8+JwZngU608t3UTu6z+i1od4JX9bXyoKNQua+HNen9sweodHF0N/d2tvExT1OO7utw8tGYbe629vDJQzt56K7h7eObjLmrWbmevtZdnPu6i1/iwKVrGW5trqdKPDbSz8eSA3zbNM7u45wi7utyBLHodz3zcBcs3x7QFwGet5zfG8v329E7wA8+kODnXX8m6qirKzgUFgubdrcTq/9vo/S1ruJ/GEu14zdoWqv2hDr0eS8gUtqo6A1493YtY2N8eInrKGu6nofBC1NCCkCnnlS08sFKb4v6/5/znzXOB+II2PIzB3XcGl2051cOJvdblpTZwfcmg5yYWbyXVpaXgCOaJZd9plkU9fuK8N9DeTtcCGqstgX41N26K3g+WGtYZx8F5JmB3Mn3KktUxbYH446zXsaTKjPNMW8g4lioKqseJExv0H+Hzc1302ZqoXmLBnuKPDJ9qpnaFFu5yjmWU2Awn9ZmCsCIHHS4aVszFDNxIIk3SwtbuYggbTjtJi0+TcprW4+t5tnkjjYeD07V6uENpYOyC3qzGp57niXrt+MYfvsAGf6jDR/YyHtjzfTaW6PdQd2AKWPcaFR//dYgQaXzqeR4v/jRqaEHIFO9jL/DSY9q07v88rB0qKSkB4oua8Klsx7H9dNfvSGq6/d7lddBzgFN2JyWu9WxY3gCdwTyx7PsDO6Mef73VEWjvu911PLGhJNCvpU//U/R+KGvhOeM4dO8P2J1Mn7L5hzFtgfjjrBW2jHrXp+zrIOC8DJ+Wj5i2z6DPkyWZsc8VPrWUB5rrcB7/dc6EbHgf6+MySENS91GsMYp1zca6Hox5Q+riAPuc6wNl6fYZrzfj/R9oV4LrLdb9obc71jU33v2XcgzuuXORIrd4QXGIuI0VvjDR1C+vg5MH2ehWAmJ379ZlnP+4i96uVpq/jDb9H+u4H2sde63tbNyvCVUUhZpolVvreHNND8/sP0ivovjF6H28tcwdImjjEdtG8C1q4niTlbcOH2SXoX1vbiWmyI12k+hkEvcXjRuOK3iqFmCxgN2ricIHVxTSd/IIJ7xKYBp63Vo48dl57J2fMBhIo8fwKhQtqYIzR/jIkKdhbQ3ez85zIw27POfb+fBc5PS6SfFidy2ntGQFWxvOxBSq0eIuyxrup9GioA7Hr9tnrqbaBs4zDkyKgt3lpbqqkrvNjkDMciz7INZxDcVSRcPwGT467LdbUYjmP1csVaxb0c+Jw0fwKIpfjC5nXc3NpD3VsW1MPM4eRaFoSSUl3gucsIOPYDkfORR/fi99Xn1MvFTHCOUw9qmn3xlyvryxiWoucOKcB5ZEa4UZs5mQ3zJF5kJgOMU0iTEpp/ndq6dBgY5XT5PsdOzgmR6czXWUlAEO43Tqz3jdoQRiMJ/dA/t+0UrHO69xKmLKVaF880Z492e8bMjz+J4WHL9oZTCllmjYW9/gpcOR06kmxcGZnh0sq9/JT54ipmgyTiHreRufep4nShTUofh1+0o3saEOuvd3YlIUTne72NC8ni2lnYFnVyz7INZxDaWkmceH9vPyT/12KwrR/OdKSTPPPn6cfT/9mT90ZRM/2r2D51qcSXsrY9uYeJztiqKJ/KGuoPPAIKr12OvGlhbKVC19un2e7DvDpJxOauxzStly6m0wdDw34Tn6DwTHsV8F+thXuokHGmGwI4n88cYowfXw8mP1dL33Kq93hoYxPWcLFYRK/U6ecP6Kl3/qCIzdnr3NqN3ada3b8PjTDXToP8iSuN4g8v7wGURptGtuIvovrUVmRpH7d3/3NAUFhVkVt7laZNbb1U4v+sPXzevdg+xqslAD9KZhJ6B5gT+7lDjmSR3gFYPQNLm7ebmnnDfr6njoyzY+SLd+/J7p+nKOtR9kn9vQvpO9bNxczpaiLnqjaGiT4wivv3okTslx2lRWQgma8EgeTSD4PFr8rvPMkYCQMylees9cwLZmAWWW83hilOs5fwYPhjz9Lqp1L1sqpiSBvfMTvDVNfKt6BQ9sDvVsQtDz6O5rCxF1gx3tWNY2UZ2g/KLSBVhw0ed//mo/AiqxlVo4m2EYhKo66exwJLwuVdVJp8GbavL2cbp/QcDbno7g0dHjtBONs9lsxuPq0sRuTVDsouCf8g/GH93wDoMtRn1+T7HF6xey/jZZapposLnoPKy1MzzsxeTto89VSYMhdlYLZzCji9dk0gDg8TJMJWVlYM+J48pGSSn47Jp3qnv/zwJCzqQ4+OjdT6nfXcfKstaY9dtbf48dQ57jPWzYaaMUMhrvaHS88xqOlt3s2bCTl17cGeLZhOBUtuPYr0Je4qfe/jUle77PhgTll6+oo4Qejvk9l9qPgPXUryjjkCOzAVDVbt5NIp5VVbt51/DiNzmO8IfjdQFv+6kMbNC9kPHGedCuLX5zdht+hJfZKAaGXEFx19F6BPxer3T7PJV3RqKxD+QoaWbP3mAwejSPYjxi5df6PXEIUDro46J27w8RlCbHkeSdQnHGKHa9K/nOzrqIsQu/5vS+U53H+cNhOygKJscRjvWs5/G64HWt/xCpL7ZRpqoMUpb0cyXi/kihPePVf2nvomAUudn23OZykdlDa7axt8KQTh1I0bowPB7Op5mu2+0GrNQUkZk6K6pgowWq/GEL4VwsApJzEieF5lWDzsNtKcZ7efF6AUsJNjNY/dPZ4QyHecnCMYYvgCbScoXnfDsfndfrXMHWFsOuEBYzhehxyKl5CHRxjOtCsA89TlzeSqrDQjnSwnszQWBF7HQ3vMNAIRYLKcy7RyGNcTaKXUNKPAm6WPekR4Q/lK5gXRX0nYzfn/bOT6Dhfhq3tNCIX/ifcdGwIrU0JsXJ54dh1eZN3EP6C+5i439h+71Tpf7py3CGSok7M2wMXwDtZZUr7P5FPFqdO/nJC+uDHuUoL6lk0YUaPZ8GxZD9S7pd69kQ9qJPC5crucn1KOkGXUNAseZtt6dvQlLj7C8/pA/9/bDxsRf4SXNYOEMGfZ4qccfeT9RFYimMW6b508I/Lt3HO0m7D+ONUcx6Y49dyDWnX5BDrsgyw65Xh9MF+u4gqTxXwq/7VNozTv2X0TZh586d4739B7h29WpWwxJy8SUzPcZ1A4O88p4Wd6tN62do7CTiWNuBGDsrRL+A0g1RMDnO8GdW8ODmlXA4OSGmeSuH6fOA7kKLvZ1SDHv9sZkluOg4dDqwkv3BFVGTZxV75ycM6ltMrVmJ53Bm3k3KSrR+L9G8w6GU5NADOP6kOs4hhC00LDIXwrDTEL8b3FYsUI/xXJUNRVGoWdsSFjpkoXFLCw0Gr7y985MQLWKpaQLvlRANnihNNnaTiIXmrRzimB3wL0aMHeMW6x7SpvXq6eEPr/jjbhue5J93ZtXUqHS88xqn9K2sdv83nD/NzLtJ4zIt9q5e8xCGUs+KRujozKSCyUOq46zv+PCRcVo6EN+YPum+M6KNfUY/PpLB7mKI7Hjzc0G8MZrohYKpXm8w/u1Jpr6M98Ht60vKfznxfKOcDXh467AmbgHqrVay6tqMhyUyFOLhinLw9HLoBoCbPg9sSMemG24uAoutqblqMwpRsDtxrqgMxNTGI7gjgT9GzONlGCg0W0i0gCsEPSzC4I0LjYG8idcLJUksDEuHYEiE/0DMdmg7TMQKzdSFV7Q9dQP7tFbVYLFnd7/dqJgjF0iVl9rAewG7BzLq0yTH2ev1BhbzaYu29PCIUlZVFeIBLBYYRNsFoe+kA/3aLG/U9rTVf/AYCdkazYC+Y0P4lmNG9O3bnP1tMccgahqLmUJD2Em2CK5K368JA7uLIaDYZnTXJEHjMupxceyNoMAotxUDeuClE6cL6nO0OCgYEuE/ELMdJdpCwBjxoIEpzigv0MB+sM0tlHWMg1iwaeEdxh8+9y6vA9ennLZDRn2awjhHS6M/47V4x2ZaGlv5bUd6fW4sLzbxBVDI2OcYffr98Wx488NJOC7Jj3m0MfpdrB9mcerV72NnJs+edJ8rBpJqzzj138z6kplipbpI+6/PWs9LddE3odKEYvLHk6u7gr1rFwX+9C1qYm+FwrFuLS7XpLg57wbKy3nIv+WQniaRLSZlgDd7PFTVt/DaoqDn22et5601FenbnBD/ops4+EpX8NCWFZS4vgwsWtJ2VfBirV7NPaUGe83VrGuIv65cUSyBOoMxkPjL9eIZBmwlga2kfKUrQsIZ4qEJMX/Zagn3tDRxt9lgn1+Y4nJiVxRMihO7CyxVy0LSlTcuj+rhCOCfunf2RwpYXURjXkBZ2OVptC+Z48mgKCU0NAaXzuj9pduWap8abUl2nG84ruCxVXK3WcXkOEOny0bjlhYe3FyC/bM2+lxmata28OCaBbgMHw2JtnVXupQ1BMc68CODC5yzp5YmF/ganuTlvTup7zkQiFfTdlVwUbrhB3y7wdC3pZt47qko8SAGFKWEktJg+ieag0HNJsWBcwioW0ajPt4NT4aEM8RDe2H5y1ZX8u0XdrPFOPZ+YUpPFx2BGEAoad4Zku7ep0M35Y8gMMUZKWB1IYWtjpVh2+4Z7UvmeDIoSj2PP90Q+FvvL922VPvUaEsy46yXr+1YEDz/7bAt5VTVidNB+n2eAsmM/Xhw6u1fc8xVx+Mv/jDCli3PhtqXCjHHpeFJvt2gJjXm8cbISFLXQ8OT7NlQQvf+zIR8Js+VeO3Rrofn+Ungmh2f/psxXzIzXWrnGauVN/U4VXcPz7QP8qYhRMGkDPCP7eUcX93C0frgFlyxjqeEu4dX3HUc3RmsMDyk4IPPjlCzdRN7H9vBXoCBdm0LMsOX0WLZ0tvVyjO0BNvnr/OZj5NYAJdFFEsV39pSFfhbVZ0hH0rQ8Zxv579o4luG+EzNoxl7YZTJcYb/MgfzqJ5+Tpxxsc4QoqAv8ArESTrP0OG00RBnn2ST4uTzMyU8tHI1D1TrW1wFYykfMNjj7mvjY8MCsEBcpmEK3N13hvOFy2MuMiuvqQxZXBaB3YlzxXKqa0o52+mMYZ835vFUUD39dHoreWBzsBPDQwqS6dNYtiQzzsEFXDXY/TtoBDSjokBIWIChw/wx0NFifFP9gt5gx4WQsQ6Ms6KklCYbRFs0Y9wsX8fe+ga/YDd7DPFymkcz9sIoU+fv+YUtmEd1Hmff/h6eNXjV9MVGT+x9gSfQtrz6Q3cdj8f5ipdJOc1v9y/j5cd+wEsb9C2NTvPbn8J3XvwnXjLY4zj2K/7FsLCk453X4KnneeKHL7AxkGY/R4t3xFzwdO+m9SGLyyLo6KJ75w42bGrg0DunY9jniHk8FVTncd51rg8Jkwif4k2mT2PZksw4n/qyh8ebtYVCdv+CojObnuelF/2LjcLCB9Lp81QwKcmNPURe7xC6zZqi1Af6Ler5OPn1aezTLbvZY2hrNnYJsre+wUuuJ3nZOC7d+/mXd/xjkmDME41RvOshol7VydFfvpqVXY/Sea4kbo/fIzvO/ac8+4PvqgAXLlzA7nIz1zov4w4Spj+5jDWc6gS8e0nsgytoBD+h640QptruCHPpSzLeeyKZSrZOZibjZ2cnM9n46pX0uTDdmJQeXGEqoMVm2lKNoxWEKOjxsr3+TzvXGMSh6unnxOHTuY9HzgJFpQuwhC1ME4RcE/wQyDjFHQvCFEAErpAWwf1Mm1hHe3Y/XyvMWEzePk609kWemAIvbG3xGvSdHIfFgYIQxuDh/Ryr/z7PPu0SD6wgIAJXyICYYkQQZiCe8+18fB5yvbeoIERDjzc9NNGGCMIkQWJwBUEQBEEQhGnFzNomTBAEQRAEQZj2iMAVBEEQBEEQphUicAVBEARBEIRphQhcQRAEQRAEYVoxo3dRmD0LlpSoLLoLzAXaMe8IXLoG55wKt+9MrH2CIAiCIAhC6sxIgWsywTcXq6yuhvy8yG9RNyyC0TFo64O/XlTw+SbASEEQBEEQBCEtZpzAzZ+t8miDyuI431UHTfg2L4XKYpU/diqM3pa9LQVBEARBEKYCky4Gt7SslCU1NTkp22QiKXFrZHGxlsc06XpKEARBEARBiMakkm2KAg8/9Lfs2LGDJUuWZL38by6OLW7bv/Lwm4+d/LbVxUXnaMi5xcVa3lzz0JptHN1ST62a+7oEQRDGC586i9LmMhpXFUy0KVlhPNszb1UZjc1m8uO8FyZL/060HeNdf/jYJDNWk5GJHrdcMalCFFQVDhw4yNNPP8WO7ds5cPAg586dy0rZc/JgdXX0czdHfJzuu8m6ZVYWFM2maO6siDSrq6HjEtway4o5447PYqa+2cLoWQ/5d1sYPXWZC5eDYRe+hfNYtaow8LfqdtNzzMOooqXJX7qA+qWzI8q99vkgFy4r5C9dQN3dY1z44BrXlchwjkT5A3aoBVQ/PI+7DGUY64hWhs7wV056v5KVgYIgTA986izyzRNthRANGZvJz6QSuADXrl/j7bffybrIrV4QfUEZgGdEE0W1iwoxxQi1zc9TqV6g0GPP2JQJZIyRy3fg7tCjujjt/9NgQJz6Fs6jvjYvRDCGi16N5GOTE+XXBey1zwf5wiB6562yUepx4fjqCl98RcC+e+/Nw37chcMzsfHRuign7EeDkBzSf4IQHZNyB8dxOw7QpjiFnJDOM0jGJjET/WyfVCEKOrrIvXnzJju2b89KuMKi+bHErY8rbs0t67h2G+f12C7aWGVMPcYY8Wj/86kFlN2dx8hZT4jn1XT5+rh6Q30L51F3N1w+NhhxI1z//MqEi1hBEARBEKYOk86Dq6OL3L/7u6fZsX077+0/QF/f+bTLs+RHP352YJhTZ70AfNh2FXOBiSc32lIqA8CnVvCvO+9jg18kHms7wPOXDFPvi5o4vroi8Hd/dztHK+5jl/svbDw5kGJr0sB9h1HGGHVDtCibAstsYGKm933qLBbeXcDI2dx5Y8NDH3Rv8jCFVD88j/yzrhBBP29VGZVmT8DjHJ4/atjEqnLuIjRUQg8NKYwSchFSF9fp8ZgDZen2UWsLHlOHI0JAwssP95Lr7bhgL6Bq6eyIdoe3R/ovuf4bjeGx8amzWLjBRpk3zJ6wuvV0C61K1PO5bFMyJN3vMfomIuTpsptok1/jdv1O8vbEG5vwewmihJTFsCcRU7lfUumHePXHewYldZ+GjU1IvTGee9EIlHUKKo22Xr5Gx+cjEemijkcS45lMv+l2J3quR2tjtOdUtGd7NLL9/Jy0AhegeEExBQWF3Lx5k2tXr+akjnuXmCmbP4cP267yvQdL0ypDF7eLe46wscsNwEPLllGrdtGrKNQua+HNemuI6H1ozTb2WhVwp1BP6SZ+tHs9pVFuJFV1cuyNX3LIEf3mMSkjXPjPEVDg+n+OoIcGmJQRrtvncdfCu2hcFXojjRvWAuZZYPTsGKmEPCSLfjMPf+XkC4NwWlgOw4NJ5Dfc7Hr+eUst5KseRr+6wue90adh9HqvfT5Ir/+49gBaSK0l9MGhLLyLyq+cfPHBncBDqv4RK+rla3zxwUjAhspvFgbGKBimcZlejxK46es2EPIAUqxWKr1aOQA+gyiNaE+0h7T0X0j/JTMdGWJPlLoLay1w6jJfGOqt3GAJrTeHbYo7Xqn0e5S+MebXx3PeqjKqrAqqN7Se8bx+J2t7Up3eTtaeVMqZiv2StfrjPIOSuU9j2hfvuRcjr2K1Unevm54PLhsE6zwaVxHybk40HvHGM1vXj7GsaO8GR5x+TUS2np+TVuAuWbKEHdu3c/PmTd5++x2uXb+WUXme0cRp0i6jyMpi4KL7BrpA+7CrW7vo1AqeqbPQ390a4tH94LMj1GzdxK4U6jc5jvD6q0fipEhPHF7/3E730gXUL72Lex6O/MUYKN1qpf4Ra+DvaN6jeMTKr/10CYZNZBPdO6xevhbywDZ5vMl7i62zyAdGPUEBfv0rb9wHsE8toPreAoa/cobc2CaPlwtnC6i728K83mDfqW43F3rHQFE02+wWKsuGufDXYe2Y/4fIPPMs8lWVYfJYeHcB109dDrTDpNzh8ikP85oLmGf14PD3p6oGy0m1PdJ/UfovCULsUUawnzUz7+585qnDXFcURr+6jgNDvWdHKLs3jwJgNFoZWW5T1vo9rG9i5b/6Vxf5G2yUBeqZNU7X7xRoTwoka0+65UyVfslF/dFI5j6NSRrPPVUd5oJBpAXHI/jsCKRLYjzCx/MqhVm5frQ6s/BuiEG2np+TUuBmW9wCXLqq0LgosxjaS1djDNqNAY56atm1egdH63t45mPNcwtEFb+TkVH/Aq55q8qoWngXjX97O2IBV9RpoxRf+pnkTwu/d/j62WHS7n/3CNc9FhauKmdestO9UR5uOsOeMSCPfCugP1y9dyLL9Ixh/Jkx4hkDfdWuv12F/qmfcEYthrLDykmpPdJ/kf2XDNHsCUO71wz3lzqcuIxstSkWqfZ7eN/EyR9az3hdv1OgPamQrD0ZlDMl+iUX9ccg4X0ai3See1H6INPxCMlPlq4fyM67IRZZen5OOoGbC3EL0HcFRseUmDspJGJ0TKHvSvRzJsXNvkPv87q1nt9sruXNx+rArQnd7gxsDieTEIVkuf65nc/1OJjmuxhNwUObNu47jJLHvIV5OCbhNl/6atnLxmniNOIac0HsmK7Ydo13e6Zb/2WKPuU2jxH6/6TdX9o0anbKn4g2pctUuH5TYSr1/Xgy0f2STv2Z3qeT+TqdyqQyLpNK4CoKrFu7LuviFrT9a9v6oHlpevnb+hLvgWtyd7PrQLd/QVkdz3yji3/82s1FYLG1iNCAWyvVFlKKwc1ViEJEPQGXf1aKS6I+baq1MmxaLCu47zAK5FvyiL6I7jYjHpiXxCI7k8dL7396/XFHVsrKPVy4nHq9hZY88C/4S3vIErYrMUm1R/ov+5TnM48x7MeD17repozIRpsy7feY+cK0G+wAACAASURBVGdTYAG8idIlT6bX72RrT1Ika0/a5UyRfhmP+rN0n6b03LNEhj/MX1gAHg/X0xqPsPEk2esnief6RD1DUxiXSbVNmKrCu++9y+/efjur4lbnrxcVLg5FHl84f3bcBWYXh7S8sfBZ63ltmTX0oOqm7waYlAEOD0JVXRPPWoPe44fXBndcmEh8agGVf7uAUotqOKbF1mAfzb331s/Vv7qwewqofNgWYUtpc6h9qaDF74xRuLSEyoWGchfOo3Khikm5w6gXKMtnnv/rM76F80KmPnwWM5VLQz/+oaq3I2KGtRs9cb31S2dz/VRmQj5m+RYztQm+RhOvPdr1EPyijfRfblAU/wvFX2fl3Zn7GpJt07xVsb9YlGm/az9WoeDuu0Lu2fnfDP14y2S4fidLe1IhWXtg6o9zPHJVv/EZBJndp6lcp8H6Cqn8ZnB3A/1Zev1sfK9vsuOZfL8lfq4nejcYCe/XTEl2XCaVBxdgZGSEkZHcrOT3+eCPnQqPNsT+ZG84F4e0PD5f7DQmdzeHrds4utM/+Kqbtw4fZp9b+/vDk+/Dmm3s3bIjsKisv7udt9z3pbTILBeYlBH6PoDqhxdyj+ECH/7KSUdYuED4IjEIXZCmKIVUPVIY+3yc/Pp0zvWlC6jfUM5C/bwaGQucKqNfXeFzzzxWGeKwtHq1MvUA+6pHygPn+i8XUOmPbTR5vFy3lHHPw3qAf6hNJmWEvlP5rFpVwj1Lg1uhRK1Xvc3lY4NZ2Q5t9KsrdLOAemP5bjc9x+Iv1IjfHv8v97B6pP+yh+nydbq/ygvUq7rd9JwaoS4LMyaJ2qR/fWnEfjtuGZn0+/XP7VxYVUaV4T6+9rmTy+bQRSwTev1OovakSjL2TIdxHs/6oz+DMrtPU71OdbsueMzc83AwYjjRFnjGdiYznsn2W6Lnesw6De+GWM/2TEjl+ak8+4PvqgAXLlzA7nIz1xre5dMPkwm+uVhldXXsr5uNjim09Wme23jiNl18qpXntm4av31wBUGY8Wjxa2ZGJsEXAIXcIeM89Ui0p66QOpPOgzse+HzQ3q/wxdewpAQW3QVm/0yBdwQuXYNzToXbk2+9kyAIQvqU5zPPM4I9k/hlYfIj4ywIM1Pg6ty+A92XFbpjBXwLgiBMI0yXr9NxmdxvzydMKDLOgjDDBa4gCEIqhH+W0ohsASSkilxP0ZF+mZ6M97jOyBhcQRAEQRAEYfoyqbYJEwRBEARBEIRMEYErCIIgCIIgTCtE4AqCIAiCIAjTChG4giAIgiAIwrRiRu+iMHsWLClRZR9cQRAEQRCEacSMFLiJvmTWsAhGx8jpl8wEQRAEQRCE3DDjBG7+bJVHG1QWFydIl6fSvBQqi1X+2Kkwelv23BMEQRAEQZgKTLoY3NKyUpbU1OSkbJOJpMStkcXFWh7TpOspQRAEQRAEIRqTSrYpCjz80N+yY8cOlixZkvXyv7k4trht/8rDbz528ttWFxedoyHnFhdreXPNQ2u2cXRLPbVq7uua7pQ13M/WNdVYpC8FQRAEYcYxqUIUVBUOHDjI008/xY7t2zlw8CDnzp3LStlz8mB1dfRzN0d8nO67ybplVhYUzaZo7qyINKuroeMS3BrLijkJqV3Wwpv11pjn+7tb2dXlHh9jcoSvdAUPrSzB3dfGifPekGM6qqefE5+dx5PB5/ssNU18q9oS87yx/onAp5qpXdtEjSW0jbHs8qklrNq8nFJDn4Sn9Zmr+Zs1lVjD+s1xupUvHErSaYxYappYZ77Ax53OkGPfqrbEzBOwp3QTP9q9nqHjn1LcvJ6h/T/jd53B9L6GJ3n5sfrA36rzOPt+0Yrdb1tZy272bCiJKLfrvVf5XadCWctunm0e4t2f/m86olwrifIH7FBX8p0Xd7DMUIaxjmhl6DiO/YrXWx0J2yoIgiDknkklcAGuXb/G22+/k3WRW70g+oIyAM+Itl1C7aJCTDHeQ/l5KtULFHrsGZuSFL1drWzs0v7vW9TE8SYrbx0+zD739HhR+lQztVW2EGFmqWliXdUwHYeCwsZXuoK/WWLJSIB6zrfz0XkC5T24opC+k22c9U58XxoF4kcOo9DSRO/WKhedh08H+gOgvHE5hf3tfBTyo2A16wgXxF7OfxbezvA2J05jFMKqMzS353w7H3pX8OCKlZTZQ+2MxIXzjAuaQ4/q4vQPr7waEKe+hif50eYyXm91BNKFi97o7YlNovy6gO1671VeNgjSxqd+yBbHLznU+gYvtxKw7593FnPsjV9yKKqwj95WQRAEYXyYVCEKOrrIvXnzJju2b89KuMKi+bHErY8rbs0t67h2G+f12C7aWGUI6TAXsxmGvR5A80ouqTLj6e8PESAmx5kJ9a7mEqOgD/d+mhQvZ09+won+Qho2r6TMEGph7/wkpE9MjjN0OFUstpJgSIZ5LhaG8XjiGJBEGktNEw+ugNOHj9DhjHH9e28Sr5pIXDj9utWnrqSl2Ybz+NEQz6up8/ch4jbX+Bqe5NlmOPrLVyO8rR3vvBFDxCZDsK2CIAjC+DHpPLg6usj9u797mh3bt/Pe/gP09Z1PuzxLfvTjZweGOXVWEwsftl3FXGDiyY22lMoA8KkV/OvO+9jgf0kfazvA85cMHrlFTRxfXRH4u7+7naMV97HL/Rc2nhxIsTUaD63Zxl5rL8983EWvQRwYj9es3a79/yS8tLmWKj3dQHtEvT5rPb8xpnH3RJSdayzmuUB8QRsexuDuO4PLtpzq4S9Dps9ToazhfhoKL0SEQxiPmxs3af8/AysNU/uq80xEveHT/+GhFrqgd55pw64oIWEHqseJExv0H+Hzc1302ZqoXmLBPgFC33O+nY/PA4qCOZOC7C6GsOG0Q7RJ/pKSEmBilKBPLeWB5jqcx3+dgZA1kKCtgiAIQu6ZtAIXoHhBMQUFhdy8eZNrV6/mpI57l5gpmz+HD9uu8r0HS9MqQxe3i3uOsNEfF/vQsmXUqpo41ONpjaJXE6EKZBBG+8HAIHubytlS1EWvO2jL5nI41q7VXQNgrePNNT08s/8gvYriF7L3cXQNAZEbDIM4yC63gk+18tzWTby5lZgiV481LI1yTlWdcaZvIzEpTuyu5ZSWrGBrQ6Rg1IkW81nWcD+NFgV1OKmqojLocNGwYgFllvN4/DrSp5ZQZgPnGU2YmgHFUsW6Ff2cOHwEj6L4hexytjYQsDkYBnGEE14lEG6wbi0BkVu0pJIS7wVO2MGHJm45c4SPHIo/v5c+r+bJtbu8VNtKsJzzRI1F9pmrqbaBp98ZOF9kLkRRLDRuaaHRny48TjaZNNnCpJzmd6+eBgU6Xj2NHhpgUk5zpmcHy+p38pOn4F/eOZ31uhNStpx6Gwwdt5NKyEMsYrVVEARBGD8mrcBdsmQJO7Zv5+bNm7z99jtcu34to/I8o4nTpF1GkZXFwEX3DfSX2Ydd3aAo+NQKnqmz0N/dGuLR/eCzI9Rs3cSuTAz6uoe36jexcVER+/QFZ98oZwODvPI1wfeqOsArBpFqcnfzck85b9aV85B6iQ8o4rn6co61HwzE+JoUN6+f7GXj5lABbcTkOMLrrx6JY2CcF3tZCSVoIk7H3vkJ3pomvlW9ggc2R3pGda+nu68tRIQNdrRjWdtEjDWEyWHvp6+qCVuphbO6p7SshBJcdBp0j6o66TR4Yk3ePk73L2BdVQllqoNBLNRW2XCeORKIazUpXnrPXMC2JiigzWYzHleXJnZrgmIXBf+Uf2HAtBveYYg+qRDwFFu8FzhxzqNtRUJo3DH4fxisbOEeggI2mTRJ4fEyTCVlZWBPwwnb8c5rOFp2s2fDTl56cSdq9/6oQlcpaWbP3mBQq6p2x1xUFo1Y+U8BEkogCIIwvZiUAjfb4hbg0lWFxkWZxdBeuhrjRXpjgKOeWnat3sHR+rBp/SjiN1uYFDeHBjzsqqig9ssuuv1Ctb/nCB8aX/oeD+HBHd1uN2Clpgiggo0WqFq9g6OrI+u5WERGnuZwNA8ldB5ui1iUpIuusob7aSxZwdYWT3BBmMVMIXrcbrb7MtRTesMvVD397aE2em9GBFDc8A4DhVgsACXYzGBd2cIDKyPrGTYTEYFhFLuGlFpsbJxm6t7sZHaa8Jxvp8N8Pw1VNVjs0dMmkyYaJsXJ54dh1eZN3MORtDzAdv8CrsannueJ+p385IX1ETMAUReJpRA+k2l+QRAEYeow6QRuLsQtQN8VGB1TYu6kkIjRMYW+K9HPmRQ3+w69z+v+GNY3H6sLxK92Z2BzMnRfGqS/TvOydlPBRouHo5fSE9PhccNBopeVboiCyXGGP7OCBzevhMPRV97bOz9h0D+1X71mJZ7DpxlMuUWpccNxBU+V5mW9QQk2sxfXmfTEdOyp/iTKMs/FuKlZkbkQhp2G+N3gtmKBepIQal6vF4NjOO004ejxw5xJT9wa6XjnNU6ppTyw5/ts2P3fcKbgoU0bu4sh1lO/ooxDDnHjCoIgTAcmlcBVFFi3dl3WxS1o+9e29UHz0vTyt/Ul3gPX5O5m14Fu/4KyOp75Rhf/+LWbi8Bia7gb1Eq1hcw9o37v8cZFRRyinCrPIC+H61uLhRqg13Do4Ypy8PRy6AZALBvjk1GIgt2Jc0UlFgvYY6ydMileevtdVK/wH/B4GQYKzRZC3aDajgxkEIOrle/E5a3EVmrBzgIs3iucDte35rmYIWTXgPJSG3gvYPcAxLIxFK/XG1hQp8X/VlF27jSDlLKqqhAPYLHAINWsrIK+k46AIeWNTVSbXXQcSrQtVyhmsxmGL8T1zCaTJgKLmUJc9GUnhBWT4uCj4z1s2Jl5WcnVp8UBP968kcbD4yCoBUEQhJwzqbYJU1V49713+d3bb2dV3Or89aLCxaHI4wvnz467wOzikJY3Fj5rPa8tC/sog+qm7waYlAEOD0JVXRPPWoPe44fXBndcyAST4ub17kGqKup4psLCse4oC8KUCvauXRS0d1ETeyuUQFqTMsCbPR6q6lt4zRDG4bPW89aaCnKHWROmaF7Ae1qauNtsqN+/Vy4uJ3ZF8S9EA0vVspB05Y3Lo3qRU0UX1BZbFUtsZpz9kdP0ilJCQ2PwWvGVrqCxRAmkNSlOzvV7sVav5p5SQ1vM1axrCK6pv+G4gsdWyd1mFZPjDJ0uG41bWnhwcwn2z9roc5mpWdvCg2sW4DLs2Rtc+BZf3JY1hPalpaaJBpuXvvOOlNLkGp+6km+/sJstxr7y72pAT9e4ic1Tb/+aY646Hn/xhxG2bHk21D5BEARh8jOpPLgAIyMjjIyM5KRsnw/+2KnwaEPsT/aGc3FIy+PzxU5jcndz2LqNozv1lUjukI8yfHjyfVizjb1bdgQWlfV3t/OW+77MFpnpfD3Isab7IheX6bh7eMVdx9GdTYFD4eEIvV2tPEMLbxrjcN09PPPxpXGJUzTGcT4Q9oWujw3bY9k7P4GG+2lc26LtEIG2Tdj5wuWZLTILVODEuWJ5xOIyHdXTT6e3kgc2rwgcCw9H8Jxv57/QFmzpcbhanKwj0Jcmbx99rkoaVtRg/+w89s5PCHxDRFHA+LfRCH8ccrQYX1UNxisPdnRRu3YTD/i/jqaqzogPRiSTJteYlNP89qfwnRf/iZcM9TqO/Yp/CdsHN3yRGBCyIE1R6nli7ws8Eet8nPwmxcGhfa9xumU3e374Ahv18ynuBiIIgiBMDpRnf/BdFeDChQvYXW7mWudNtE05x2SCby5WWV0d++tmo2MKbX2a5zaeuE0XfRuuTPbBTaasWHvlTjTZjNvUY1Iz2Qc3mbJi7ZWbcV1mb8SX1bTdEebSN86CMx2mkq2CIAjCzGDSeXDHA58P2vsVvvgalpTAorvAXKCd847ApWtwzqlw+87E2pk0RdrisrdOXmLq7Ll5E68XbAliVccdi7a4rO9MMOY1V+hfK+s1V/M3azZRYxCHqqefE4dPZ0VI55qiUi1eeRKNoiAIgjDDmZECV+f2Hei+rNB9eaItyYyHl9VSNfgXdrknvxjSCe4N28Q62ifN53jLayqxuL7khHccp+m9fZxo7Ys8MQXErfa5Yeg7mR2vtiAIgiBkgxktcKc6+hfSxjNWNpvEFHYTQOieso4p15cTReBTvlNm5kAQBEGYCczIGFxBEARBEARh+jKptgkTBEEQBEEQhEyJCFGYd+//OxF2CIIgCIIgCEJWEA+uIAiCIAiCMK0QgSsIgiAIgiBMK2b0LgqzTXeotLioKBxi7uxbANy8PYeB4WIueGzc9s2aYAsFQRAEQRCEVJmRAldR4J75fawq7mfOrNsR55fddYlbd2bz+VAVX1ytRpXP0AuCIAiCIEwZZpzAnTPrNg+Wf0GF+WrCdGtLvuIbc6/w58F7uHVn9jhZKAiCIAiCIGTCpIvBXWBVWLwgN5vGKwpJiVsjFearPFj+hez7LwiCIAiCMEWYdAJ303ITD9wzi0pb9hXlPfP7Yorbk6e/5n/tb+ffD/6VC4PXQs5VmK9yz/zJ8cUtYXyoW23mHzbNxibxKYIgCNMGVTWxfpOZf1g9PSawx7M9ybwXJ0v/qqpp8oUofNTh4/9pmsXWxll83HGHC67sCIw5s+6wqrg/6rmbw7fp6B7kb1ZVUVJsocicH5FmVXE/X15fzK07svBsMqFW5PPfm2Zzpecm/97tCzkWSHNjlP9ovYVrCrjhVdVEc0sha4tCbTW2LzR9Htu357PU0LbwtKplNt9rmcOCsPZ/1e7m/QEl+TQJ6rLVF7CrLi8kT9Q2+uu62nuL+bVzuPoXT0j6ROOn1xOOXq+tvoC/r1X508EReqKMeaL8gXqjtNdYR7QyovWLIAjCVEdVTdjME21Fakw6gXtjWOX/tN/JushdbHZFXVAG4L45CkB9TQmmGCJozqzbLDa7OHujLOW69RclYS/yXOWbDIyH7apqork2L0Jk/X2tyh8PuAPiRq3I53vLZk244EjUJ0aB+PMQoaWJ3n+oHYsQbfVr8pnfO8zPQ8T9XL5LuMC6w2eHh/nUY6w33Ib4aRLV5eoe4X+48/nxfQXUXYouLo11DV1SoTayD5IZv+g/WlK4txLkjzUWdasLWX9jmE+7R/h5NwH7fnyfwsnW8L4bf6byM2MyIP0nCNFRFB+fHvHyqfbHRJuTFJMuRAGCInfkNmxtzE64wsLC6KEJ7pu3cF27CYDd5cUx5E25DGGiMFFshavuO4D2cvpW7SyGem+HiCtlYHTCxW0ijMIu/MWqP1j+o1fhke0F1Bmmh3ravCFtUwZG+eOgSvHCWcFppCITxai43HEMSCJNUnXd8DGUdKsB7jB0Q/vfZBk/tSKfv6+Fzw5HjkVP28iEi1hBEAQhMXllFpXL7kKKqxqxuz6daHsC6CJ322oTWxtn8ecvfHx9Jf2XnCVvNOrx3n4nn385AMCfjn6JuXAO337k3pTKgMjpzKhTmU1WftwUnL4Mn45W1dsBD128fBA5pRzukapbbeYRRvkPd16gHD0NywqDxwx1BtoSp2zd5jXesLJTsD3XFFtNQPy6EvVfunnCr4NofR55HWjC7uxfPPQoSkgZ6o3bnCUPej0c7LrFyYWFrFs2i55JLtjj4la56hfTxVFOJzN+uUKfFRjqzZ03NtY14mQ227drXnLjvVK32swj5luGezD1Zw1ED0MJD8vI1XPD2I4/XZ7Fo3V5Ee0Ob4/0X3L9F+uZlcyz2pgu2nso121KhqT7PUbfRIQ8DY5yMol6cnb9TvL2xBub8HsJooSUxbAnEbnolzyvGxRlhCt9F9IwKbfcZYb8PIWR23DjZm4W+9y3fBHltnn86eiXPPPEmrTK0B+Yxunbuvo52NRb2rRtV/Rpr5Jls6Hdw889QeH4SMschlrj5wtOiXr4d0Pev28h5MJTygt4xH2Tnx8cCVw8u3bkow6OaMf8dj+yZjY9bWNJle302xBSdlg58WyP6LsYsZ9av46lNO2rKGP0XM5naXkB/7B6hH/ztymi3CT7L9U8xnjgnxteis2L4NO410Eed7tv8R+XQCWY5ucDir/eO5y8oXlyey7fYc3CWdi67kS30zKbdQthqDd4vsSqoCh5PLpjNo/604U/OJJJk0xdyaAoY7z//hgo0PP+GHpoQLLjl1Oss7jbCld775BKyEOyxLtGnJeSyJ/ms0av96t2N/8eEndt4bvWUEGYi+dG4JlUlM8jXq0cANUgSiPaE+M+lP4L9l8yU8XxntWQ4D2Uw3dJMs+MlPo9St8Y8+vjWbfazKNFCqo3tJ7xvH4na3tSDT1I1p5Uyslmv5g8eoPy56XUsFxTaVPY2jiLkdvwf9rvcGM4M4HrGYtcOJa1MqwK8wlOlQP0dN9OeAO7ukcD4k1RfBzvHQOrKapXS0f3MJ39y3Bo3vZbDFlnUWc1pL0xyp+6NJsUz21OXPb/yj55259vjJ7LgFnBpqrpl62M8V+9d2DhrJDp82RQPLf59/e9/PygJ+Lfv72fYDp40SzuNkxxgzaN/lbPGEp5AT/ebolYyZlKG1PJo6dRB0dCb0bPbT5NEMtXbJ3F0GVNJOpi97/0l3XYlL/THWf1qv/FU+y+FRgbAFf3SEi/vtUzxtImK9sq1JTSJFOX5p3No25R3CbHJNH46ShF+ezaYeXH2y1aum35KV178fOHXlPZIpNrJEAazxpVzWP7fVqsulG0KZ7b/Kn3DsW1s0P6LqfPDUM5qbZH+i9K/yVBomd1Mu+hXLYppt2p9ntY38TK331ymM9uGPON1/U7BdqTAsnak2452eiXwNsjv6gIBlJvZC7ItrgFuDw8nxV3fZ1xGVFx3+GsG9Y2WfmH2tSmYOpWm3m03DjFneBi83uYFvin0MK5WgR4/H941Ug73KGCach9B/SVkcmUrcdoRit7HNF+ocKfDg5HLGZy+RcAaX1bwD9sM3iCU+k/nWTyoKU523ubTDx/mtgNv378sbFxitWnV5OZZnJ1j/BHq5lHaudguxQ9bbw08epSlDEOHoTt2y1sI72FOnHHz0/UdqYy7Zlh/rSwZuEaSedZE/ISDk2r/WBSsFmhJ5fPDb3ssHJSao/0X2T/JUMSz+qE76FctikWqfZ7eN/EyR9az3hdv1OgPamQrD0ZlJNpv+QBqGoBlihbY00EuRC3ABe9Nm7dmR1zJ4VE3Lozm4teW9Rz+iKg48apm4TxUdqUzt2M8ccDWtySLtqSIfb0ceYv6VyWHU66IQrKwCg/J58fby+AGNtB9bR56dbj0FoKcB0cwb/wPa02xs1jiZktM4pCPSklViXkZWOMnwvYl4RQC3kZJZkmmbqyuQo92vjF35khC7hVrjKLuxfN4tNJGOeczrNmvEjnnhrv9ky3/suUTN9DiZiINqXLVLh+U2Eq9X2u0HZRyJ/H3PyRCTZFY1W1KeviFuDWnVl8PlSVdv7Ph6oS7oGrT7f/j/bbKEX5fCveNK1/ev1ka/ClXWJN4sJzq1wF5ltzsB9vLsuOQUYhCpfucNb/6y5m+fqUm046bUwmTwZ9N+S+419YBd0DY4EpGVXNY3utwpC/japlNo/Uwsmu4I+0+jWFrLGORd19IR7F1lkJPTvhaZKqy6ownzF6koiHTIaI8csx+lRr+LRYVkh4jfgYchO4FuKR0rMmTr3aMyfBDhuJyMJzI6n2SP9ln3TfQ4nIRpsy7feY+bXdd7Jpa6bX72RrT1Ika0/a5WTeLybQwhPyib1DwHjyn5/7eL99LKviVueLq9UMeCPDDMpLLHEXmA145/PF1eqY51XLbLbVhz5UVXUsIo4vfAAUJY/iomAZj9RGvyCN+fQYqgV1c0PiI1XLbL6b4ZdDclF27h/as4J9qOaxbVsB6y2R8UhcvkOPoqTVxmTyxExTkR8RxxreJ85LdxhamMd6i4oyMMqfLufx6A4rP94+i57WYU5cnsXazVZ+3DKLswaPtqrmUbcQzv4lvmezbnVon9jqC3hk4Z0QoZwoTbJ1ZUIy4zcedJ8c5qQ7j0e2F0bYsn5TqH2pkOgaURQfLi8h8ZFqRX7o1HEaz5p49e6qy8t4TDN5bsRrj3Y9BL+IJP2XG5J9D6VWZnJtqlsd+4tXmfZ78MfqnJB7tn5N6MdbJsP1O1nakwrJ2gMTN855AKM3bqCaJscis9ExldEcOWxUFf48eA8Pln8R85O94Qx45/PnwXuI58xRPLfpsZr58XZdeIROrSvKGAf/Mov/3jSXH9fpW8+M8pZVYZc/Tka9Mcp//GWMvzdMDUXPp22o/xYFgbygxxTezjiOMFtlx7I9lxjjP39ssPVKz03+zVB3Om1MJo/+oYP/bkwzOMK/tcW7Dnz+RRtzeKRpDj2tt+hp89ITbBQY/zZOL/ljj6LFWhmvwe6Tt7C1WPhxjG2AgMRpkqwrE5IdP9AXiYWGVWl9PeYva3bIjhAR5+Pk16cde+oL2LXZytostjPRNdJ9chhbSyGP7rDyqP/cHwfzeMQfKpLes8YXvV51jM8Ou7OyHVq6z4347dE8sndL/2VcfiyUgcTvoXRJ1Cb9y1hDl2O/FzLt9542L6w286jhPv6q/SafmQsxurQm9PqdRO1JlWTsmchxVp79wXdVgAsXLmB3uSnfsDfNpk4dFAXumd/HquL+mDG5t+7M5vOhKr64Wh1X3AoTx3T66lBgz0rrncgFVZbZfK/FxInxiEHNkKlkqyAIE4f2/M5jaBJ8AVDIHRM5zpPuU73jgarCqaFqzlxbTKXFRUXhEHNn3wLg5u05DAwXc8Fj47ZvAmKihBTw/0K2zmKiPgyQLUIXK1hYa9ws/cYo/3FwZMIXLSRDyaJZFLvvpL8yVxCEmcGiWdztvsN/JdghRpjiTOA4z0gPrjB90HdhIOzrRcL4o31umKyEKwiCIAhCJsxID64wfdBWr6a39ZuQXVzdI/xbN4g7RhByT/gnh0POTZKtqoSpw3S8nkTgCoIgCMIUcPU2XAAAIABJREFUI/DJ69gJxs8YYcozHa+nxBsGCoIgCIIgCMIUIsKDe/3U/zcRdgiCIAiCIAhCVhAPriAIgiAIgjCtEIErCIIgCIIgTCtm9CKz2bNgSYnKorvAXKAd847ApWtwzqlw+87E2icIgiAIgiCkzowUuCYTfHOxyupqyM+L/ExZwyIYHYO2PvjrRQWfbK8qCIIgCIIwZZhxAjd/tsqjDSqLixOky1NpXgqVxSp/7FQYvT31tsgQBEEQBEGYicyoGFyTiaTErZHFxVoe04zqKUEQBEEQhKnLjJJt31wcW9y2f+XhNx87+W2ri4vO0ZBzi4u1vOPBQ2u2cXRLPbXq+NSXCr7STTz3wvO89OI/8VxLacL0jU89z0+e3UTZJGyLIAiCIAjTlxkTojAnD1ZXRz93c8TH6b6brFtmZUHRbIrmzopIs7oaOi7BrTgf+sgUn2qlxpq78jPBp67kO7vXw/Ff83KrY6LNEQRBEARBiMmM8eBWL4i+oAzAM6Jtl1C7qBBbUR5z8iLjbfPzVKoX5NRETIqbfYfeZ+Ohbnr9n8XzqRW8tmMbry2aYC9omY1iXHSfsU+sHYIgCIIgCAmYMQJ30fxY4tbHFbfmlnVcu43zemwXbawyZgSlNkom2gZBEARBEIQkyPuGrYCvXSMTbUfOseRHP352YJhTZ70AfNh2FXOBiSc32lIq46E129hr7eWZj7sCnteYx/gLG08OBM6/MlDO3noruHt45uMuatZuD+Rj+WberPfHLKzewdHV0N/dyq4uNwA+az2/2VxLlb98vQy9vmzR+NTzPFGvlbnxhy+wQXVy7I1f8pG9jAf2fJ+NJdo5Ve3m3Z/+bzpi1O9TV/KdF3ewzH++671X+V1nMK2vdBM/2r2eUv951Xmcfb9oxZ7l9giCIAiCML3Jyy8uxeLsn2g7Jox7l5gpmz+HD9uu8r0HEy+cisYHA4PsbSpnS1EXvW4trGBzOYDxmBZfe6z7EuAXbNY69lrb2bh/QPtbUagxlNvb1UrzlxX86877oP0gz18yiMFFTRxvsvLW4YPsciv4VCvPbd3Em1uJKXLDBaQR1S9aDzkiz3W88xqnGp7kn3cWG9IolG/eCO/+jJcdCj61lAf2fJ/H97TgiCJKdXFbbIjhbWxpoUzV0voC5f+M1w3lPbsHEbmCIAiCIKREHqOj3JpoK8YBz2jiNGmX8fUgx5rKqS4C3MA3ytmAh36PhY2LitjX5YaiCjZaPBy9YcinDvDKZ5cgRfHmU608V1/OsfaD7HNreU2Km9dP9rJxc1BUh2NyHOH1V4/EKTk1O+ytv8eOXr+Dj473sGGnjVIgIlK3zEYxMOSyB+rpaD0Cil/MNtfRvf9nAYFtUhx89O6n1O+uY2VZK3ZZ1yYIgiAIQpLkjXqvc2sGeMcuXVVozHCh1qWr0fvJpAxwePA+9lYsgksD1FutMNjDy+463qyooPbLLlhUTpVnkJdvENSRHg/n0zGkqIKNFqjyhy2Ec1EX2uOAMXwBtDCFqNi/pNu1no2PvcBPmsNCD8qWU2+D0sde4KXHIrMOlQIicAVBEARBSJK8mzeGSdVzNxXpuwKjY0rMnRQSMTqm0Hcl9vnzbg9UWKlVrWypsHCs+xLdN6z011m0sAOrhf6BgazGxx5rOxASthAkRgxsmiEKUcvyhxzU08MfXtHibrUwg+jpTYqDQ/te4yO/DXv2NgdibAf9acJjchO1RxAEQRAEIRp5nlFmhH64NQZtfdC8NL38bX3x98DtvjRIf105W74BGy2D/K+vAQY46tnE5m8sgnIPR7uM7tsMuOHmIrDYmpqrNqshCo3LqMfFsTeCi8rKbcXAUFI2+Bqe5OXHmmlpbOW3HS6GgGJbGeKqFQRBEAQhU0x6eIKqzptgU3LPXy8qXIyivxbOnx13gdnFIS1vXG4McNRjobrCQtXgIB8qCibFzaEBDxvq61jsGeTQjfhFxEMTsxomZYA3ezxU1beE7I/rs9bz1pqK9CtJEUUpocTfbb7STTzRHH33Cf38t8O+fqaqTpwOMCmnaT3uonTDD/h2gxqS57mnVubEdkEQBEEQpi+BL5lZKypxXPl6Im3JOT4f/LFT4dGG2J/sDefikJbH54ufThezb9ZXcKytDd0bqnl2a6EnvfAEkzLAP7aXc3x1C0frg9uE9Xa18gwtvGmMw3X38MzHqS9aSwdT5+/5hW03e/xxs6rzOPv29/BsrBAFxxHObHqel17Uf1CFhkTYW9/gFwTLA32bsM5xaY8gCIIgCNMH5dkffFdVLZXM8fbyaftXzLVOf0+uyQTfXKyyujr2181GxxTa+jTPbSJxKwiCIAiCIEwe8lRLJUsr4OSfL0+0LeOGzwft/QpffA1LSmDRXWAu0M55R+DSNTjnVLh9Z2LtFARBEARBEFInb2kF2Lv78czAaeDbd6D7skL3zNH2giAIgiAI0568sz0XJMZREARBEARBmDaYJtoAQRAEQRAEQcgmInAFQRAEQRCEaYUIXEEQBEEQBGFaIQJXEARBEARBmFaIwBUEQRAEQRCmFXmJk0xfZs+CJSWq7IMrCIIgCIIwjZiRAjfRl8waFsHoGPIlM0EQBEEQhCnIjBO4+bNVHm1QWVycIF2eSvNSqCxW+WOnwuht2StYEARBEARhKjCjYnBNJpISt0YWF2t5TDOqpwRBEARBEKYuM0q2fXNxbHHb/pWH33zs5LetLi46R0POLS7W8k4mfKqVZ7ds4+iaiok2RRAEQRAEYVIxY0IU5uTB6uro526O+Djdd5N1y6wsKJpN0dxZEWlWV0PHJbg1lmNDBUEQBEEQhIyYMR7c6gXRF5QBeEa07RJqFxViK8pjTl5kvG1+nkr1gpyaOKnwqSv59gvP8+2GyeW5FgRBEARBSMSMEbiL5scStz6uuDW3rOPabZzXY7toY5UhCIIgCIIgTB7yVHUeC+srGR1yYHe5J9qenGHJj3787MAwp856Afiw7SrmAhNPbrSlVAbAQ2u2sdfayysD5eytt4K7h2c+7qJXUfBZ6/nN5lqqFL9n2HAOtHja57ZuYpfVf14d4JX9bXyoBD3JvkVNHF9tiLcd6OGt5JqeMmUtu9mzoUT747EXeOkxcBz7Fa+3Omh86nkeL/6Ud7vreGJDCarzOL943cnmvTspPv5rXm91BMrR0+77RSt2va2lm/jR7vWU+v9WncdDzguCIAiCIGRKHtZ5WABLxWLoc060PePOvUvMlM2fw4dtV/neg6WZFWatY6+1nY37B7S/FUUTpk1W3jp8kF1uJSBm39xKQOTWL6+DkwfZaDi/d+syzusC2S9uj7Ud4PlLmhDUBLUCcX6ThItJI6rq5Ngbv+SQI/KcvfUNXjq8ku+8uAP2/4zfdYamUUqaeXxoPy//9LRWj7Iyqe7xNTzJP+8s5tgbP+N1h4JPLeWBPd/n2T2IyBUEQRAEIWvkWa3zYNTBxe6eibYlp3hGE6fJuAx1gFc+uwRGz2x9OcfaD7LPrR0zKW5eP9nLxs3lbCnqotcNvV3t9GI43z3IriYLNUC3WsG/NpXT390aELcAH3x2hJqtm9gVxxyT4wivv3okTor0BKWqdvPu252BdiaDTy3lgeY6uvf/LCCqTYqDj979lPrddawsa8XuSFCIIAiCIAhCEuSZreAZuMytae49u3RVoXFRZjG0l64m6COPh/PGv4sq2GiBqtU7OLo6MvnFIgIe2IfWbGNvhaF81e8FLrKyGLjovkG6gjTruFykrEXLllNvg1J/yEM4Q6WQeqGCIAiCIAiR5Fm4jn36ht4G6LsCo2NKzJ0UEjE6ptB3Jb26jaEFoSj41Ar+ded9bGCQV97T4m61sIb06jKSbohCLul679WIkAeNSSLeBUEQBEGY8uThvo5nmntvQdu/tq0Pmpeml7+tL409cG+4uQgsthpcteF8o5wNeHjrcHBRWb3VGkwfswwr1ZbYxULuQhQiceJ0QX1JCTHdsHYX/z979/rc1Hnvf/+9hKktJNnEWJYNxSewTWyTODGH7ALBQELTNkDa/ELTGe79gN3cSaZ/wG/ya2l2mrvt9C9I0+zy4B6mnZLdJsCe3g2bgAmmswl2A8E4PoBPBGwdANtasuVitO4HOi3Jki0fZBnp+5rJTCxd17WutezEH1/6rmvdA/ILbPHbCCGEEEIsAIPqHk71HBbNF7cUbt2b+nrRY8unvcHs1j1/39kyKHc42qVSWt3Ir3XlET5LNcf0TyBTLJTlht97u8ocMca5QSitauB1S3iMF7Y8zfZF+MPEH0inZ1AcOO8BVRvYqPnn6Kt7mR9UK7o212m66KJw+48j9tb1Fe7kzVcSu0lNCCGEECIRWR43GfPpsM8Hf21T+G5d/Ef2Rrt1z9/H55vbMbs7mjhMI0f1dbjuLg5/6r8ZzXC7lcMWS/h9dxeHWwc5qitROH35v2DzixzZvT90U1lzSxPHLNPfZDYfBuU6fzyxgXde+jFvbw9vExbP1eO/x/rGv/GDIz/lB4DWeYK/dFbxfd11tjd9wG95jTd0dbj+bcJmd8OaEEIIIcR0lNd//H9pAAMDA9hdblZY8lI9p6QzGOCptRqbyuI/3WxiUqGlz79yO9dwK4QQQgghFl9WqieQCj4ftPYrfPk1VFhhzUow5fjf83jh9jD0OBUePEztPIUQQgghxOxlZMANevAQOocUOodSPRMhhBBCCLFQDKmegBBCCCGEEAtJAq4QQgghhEgrEnCFEEIIIURakYArhBBCCCHSStbAwECq5yCEEEIIIcSCyfrGclnEFUIIIYQQ6SOjtwlbvgwqrJrsgyuEEEIIkUYyMuDO9CSzujUwMYk8yUwIIYQQ4hGUcQE3e7nGd+s01ubP0C5LY9t6KMnX+GubwsQDZXEmKIQQQggh5iWjCnANBhIKt3pr8/19DBl1pYQQQgghHl0ZFdueWhs/3LbeUPnDp07+2OTilnMi4r21+f6+s+XTLLy++0UubF49l+nOyt7NL3JhdzWV2uznKWbPVvcse+qsqZ6GiGPjK2/x89d3YpP/HoQQIiNlTInCN7JgU1ns98a8Pq73jbF1g4VVucvJXbFsSptNZXDtNvxzMskTFQnzFdawt9aKu6+FS70ezOUNbC0dp+3cdexKZEmJT7NSv+txjP2tXOr1LPocgzS1n0uf96IqC1vy4tNMVG5poNwcOW7w2kxt778ehbp5RLf1mcr4l80lWKLm6rjexJcOJeE24P+DYKPV/7WmqfRdbuGmx/+1ubyBZ8rMU/rMlU8rxDqLT2lSwVf3Mu+8VB362tH8H7zX5EjhjIQQIr1kTMAtWxX7hjIA1evfLqFyjRFDnN+v2VkaZasUuuzJmqGfT1vNbw48Da2neOu21P3G49NMVJYWxA1wS0EwcF872xQK3L7CGv6lwjyrOQfDKO3nYwZAfUA8o3s/GHr3lLqmhP7ijf6wfyYwD38Q38RWoq+nh97Pw2HUL3oO07cxlzdgc5znTFs40G7dvAkCIVftbeW0p4bna2qx2af+cTJbBsXB2fd/zVmABf5DYiH46l7m3w/kc+F3v+SsQ8FXuJOfvPZvvMnvJeQKIcQCyZgShTWPxQu3Pu66/cuyjuEHOEfiL9HGG0OkwgpMJhj3qKmeSEw+zUpFqQm1vz8isBkc7QsayPUhOjr8GhQPNy9/xqV+I3W7aiM+rre3fRYxD4OjnWtODXOBFXOwnWkFZsZRp7vECbRRe1sj5jbquIuKCZNJ18gzxtL8Ti4sn1bIc9uqoOvvnA1cE4PjPH+56MJa/biUVAghxALJytE0vEtwlWOhmbNjv37zzjhXb/p/0Z9uuY8px8DLOwpmNUaQb00DFzfp6m3vdHEsuo1m4c09OzlkCVxz7Q7vnmjhtKJQuaGRo9UW/+ub9nNhE/R3NnGowz1tvwi5Gzi2q5LS4Ot3Wtlx+U5Cx/e/719B3h74urnlZMRKss9SzR/047u7OPxpB90J9l9Koj/W1zRnxEpn9Mf4sT5CD66exuoPYDatAKYPtNEf8+vLGPTjU9vIc7XhUoJgiHa2t2BXlIj5aqoTJwXQf54rPR30FTRQVmHGvkRXu+fCp9Xyo5/tZ0PgunV8/Ev+FFgl3vjKW3w//++8/9smBjf+r4hygCB9WYB/FfVboe+15rzI+79tmvdq8hS2x6kugM6LbehXuQdd92BbFbW2JuyyiCuEEPOWtWF9IVduOlM9j5R5ssKE7bFvcLrlPv/6fOGcxwmGW32g27v5RY5YFHCH21U/XgWXT7HDrYTC5pE9G+j9tIPujia2fRW7RGHafsFfwpYqjm7u4vCJU3QrSiCMPs2xDW4OdbhnHKeTNfzmwNOs7TrPjkD7vRs2UKn5j+Fb08DFBgvHzp3ikK7/0T1wOIH+U65ZVKjQ0zQnzR/8LrTKlQy5FaXQfp4zHiUUduu2lOP5vJdRCkM1u8GP8W3l5Zi1cP2sYq2h1tPCmXOeULgM9lcVJ3bX4xRaa9hT186nbbH/G/MV1vB8jZG+y+e5pJvH1i34Q25vK6d7Ypco5FaUYPUMcMkOPsJtzjiUwLge+jz+lVy7y0NZgRVzjxqz/tdnKqOsANR+Z+j9XJMRRTGzcXcjGwPtokN+Im0ijqOZqKwpwez6ikvz+N4Gw23+xd/zTiCkbmxsxKZNDaWGtj/zTlv462D4/cs5OyhKqGSg+YNf8Z5D8a+yvvFvvP4GcUPu/H52XTijQ6zDhZMlXjgshBCPkCxyTORoDsYxAyOpnk/SqBMzt5nrGD5tNb9pKKa/sykilP7t8/OU79nJIV3b7o5WugMrNwbFzXudgxxqMFMOdE9z7IT6aXd4Vxd4De5O3ukq5mhVFXu/8q/STjdOZ66FtcAt9yjB1aXTHZ3+EKBZeLO6mObWU7zv1vW/3M2OXcXszu2gk/j9YzE4zvPeL89Pc9bTBCCbFSv+ABfRQ7FGhK1our81UHvbUUPXwkN3v4uymhWYgFGzCSPBEgh/G3tvX8S5aGo/13tUUBQMipOe/hKspf7+Kv4yAE95A8+U1fDcLtCckUE3WEfsbD8fql81KB662wco2LwKm7kXdZoFV5PJhOrqQFUUcsvDYReFwEf+xlDbUc84xP5gIrSCbPYMcClwPv7r08qZ3nA7c3kDz9Q28gThAJtIm+iVcndfC59GrySrHsYpwWYjsRVMWwH5wD1X8IThWtP5GWtufXUv8/0qF80fNAVWvf0lA50nfhUuGVAcnPno71S/Fn9Fdc4/u4UFWIHOmG8WYC0EZAVXCCHmLQuvx1+ikGMF7szY4VF1+77CxjXzq2+7fT/OL60YwXA6eze/yJHVunZaYtd9xn6qSm/kK3S63YCF8lxC6S7uOKN3uKBWcmjTfi5UR5YekLuaHWYoDZRORLuVC3w9Tf8F5F+dhLZzLVNW12KVCYBuF4WosfR39wf7A6A6cXlKKK9tZE9pnJ0Pxj0z7oYQDID+49Swp1G3g4DZSoEJLIHSg2jjJmaqbgjRh13dCP7a2GmmGCyBSGR3B7W3lWumZ6krLcdsj902VptgLfBN3TGf2xW5a4JBcXLlHNTv2skTxL6ZLoL9Kzpd32LHSz/l59sSKyfwabX86EAVzou/D6+uBkoGCl/6KW+/NLXPvUUNnDFWdoUQQsxJ1vA9B6BgXLWKKekojfTdhYlJJe5OCjOZmFTouzu/OYTqUxnk3Y/9K6r+j/2T02+24xgUN++f/S/eC9TZHn2pKlRjG1xxil9Tq0zbfyFLFAyOdv6bGp7fVQsxwmxi18IfeK24uHbWP0YwOPuvhT+UdQdWN5/ZXTqvLb7sbZ8xGFjJLNtci3ruOoOB9+J/pD+PPw5MKzDrvsw1GWE8XH6gX1UNHT+B8/J4PEz5K2GWbUIhuLAQHM7AfKbfKSJacKeEM4GfoTeObJuxbvbJg/uppouPAqUJevr63UhxSi3mWqLgcOGkaupK7bQru0IIIWYra+geaJh4bKVp5taPsH9OQksfbFs/t/4tfdPsgTvq5haw1qJbJgXAQplZ99I3i9mOyrFz4Zu6qi2WqD4xJNrPPLXU4YXVxaB2c3Y08XEM7k4OnewM1BVXcfibHfzvr+Od41Sx+r91O0a7+ZQo2J04a0owm8E+l/umgiUOl8MBOddkBMYj5+jp41JTX2AbrVIqbL18OcdVtnAZROAF1cM4YDSZSXipVsfj8YRuYht0uKirKcXWc51BCqkvNaICZjMMUkZtKfRd9v8xC1C8sYEyUzjcJ8pkMsH4wLQhP5E2U5hNGHHRF644SEjwZ8i/r+w2Gjc28ae2qe18dS/zg2qFjo//k2v6edld3APyC2zMZql2zj+7gZXn6qjjFRfkg6uL67M8fyGEELEZvIoCRiu5xvS5uzqeL24p3Lo39fWix5ZPe4PZrXv+vvEYlDucG4TSqgZet4RXiF/YEt5NIESxUJbr/1efpZq3q8zE4g+Ss+ynrObIljWhL31rGjiyWqG5U7eCOs04Pks1v95giRxTc9M36j/Ho10qpdWN/FpX6uGzVHMs8KS26fonR9RWU7OkKOZQf5+pjNrS8GA+UxlPlEcOrmkqngT/M/FpVp5obGCdSXetAjW3uJzYQ3W7Hixlm3iiUNfOVMbWGE9J8wfhsFHHXdSCEtaZNAyOdtpcBWzc3cjzu6zYP2+hz2WifEsjz29ehUv3YAWfZsVWAM726cOtrS5y/ubyBuoKPPT1OhJu478ONRHbX5nLG9hoVXA65v55vK9wJz9sjPxvVtOcMT/iD5YmaJ0npqzSGpTrNF10Ubj9x/ywTvc9KNzJm6/EqBuZJ4Pi4MzFLqzbDrA78D33Fe7kB9sK6LyYhF0bhBAiQykHvrdLe2zds5TmDHDqzFVWWPJSPaekyl6u8d26+I/sjXbrHvy1TWHiwexra5tbmuir3skh9z9CW3VFbAXm7uJwp5mjDURu1aXbbiy4TdhM/fw7NnTz7p1ijlRbdHOILClIaJzgOWhujp07F7qpbEr/4Bi6EoSZ+i+UWB9pz/ZJZhFbfKn9XOpfwdYaQv2ne/qWre5Z6vgq4qax6OMn8rSw6HmE5hJVCqF/Ipp+DFvds9QZB2ZVOhHv6WPR5znTNmr+65pAm+ht0OK2WUHfLEpONr7yFj+oDo+pLwvQbxNWePD/hNpFnGvnCX7x4XUAbI2v8cZ23RPnkrVNWED08eKXSAghhJgL5cD3doWWLW4NjqR9wAUwGOCptRqbyuI/3WxiUqGlz79y6/Mt8gTFjGZbs5muggGzzOSJCOAwt9CYKo/SXIUQQix9GfOoXj2fD1r7Fb78GiqssGYlmHL873m8cHsYepwKDx6mdp5iOmN4PFAwx/rVdBF5M9xOyqO2Mbt07vqcbopbbLmFqzB77mbwd1IIIcRCysgVXJEegh99oys7EI8ef2kHU1aghRBCiLmSgCuEEEIIIdKKIdUTEEIIIYQQYiFJwBVCCCGEEGlFAq4QQgghhEgrEnCFEEIIIURakYArhBBCCCHSSkbugxu0fBlUWDXZB1cIIYQQIo1kZMCd6UlmdWtgYhJ5kpkQQgghxCMo4wJu9nKN79ZprM2foV2Wxrb1UJKv8dc2hYkHsgG9EEIIIcSjIKNqcA0GEgq3emvz/X0MGXWlhBBCCCEeXRkV255aGz/ctt5Q+cOnTv7Y5OKWcyLivbX5/r7JsHfzi1zYXU2lNv34ibbLRLa6Z9lTZ031NEQcG195i5+/vhOb/OwKIYRYJBlTovCNLNhUFvu9Ma+P631jbN1gYVXucnJXLJvSZlMZXLsN/5xM8kQfUb7CGvbWWnH3tXCp14O5vIGtpeO0nbuOXYks7/BpVup3PY6xv5VLvZ5Fn2OQpvZz6fNeVGVhy098monKLQ2UmyPHDV6bqe3916NQN4/otj5TGf+yuQRL1Fwd15v40qEk3CbWPMtMrtD3yVzewDNl5rh9ZsunFWKdxScmqbDxlbf4QbX/XDXNSfMHv+PsApy7EEKI1FkyAbfQVsgLe7/NyZOnGB4ZjtmmoqKCrVu28tHHH+H1emc1ftmq2DeUAahe/3YJlWuMGOL8XsvO0ihbpdBlj/2+T1vNbw48Da2neOt2Zv1y9GkmKksL4ga4pSAYuK+dbQoFbl9hDf9SYZ7VnINhlPbzMQOgPiCe0b0fDJN7Sl1TQn/xRn/YPxOYhz+Ib2Ir0dfTQ+/nLdz06I8bPYdE2vjlVmyg3KygX1hVe1s57anh+ZpabPapf5zMlkFxcPb9X3MWYIH/kFgItsbXqPnqV7zzoRL6+vXX/m+QkCuEEI+0JVOiYFphJj8/n4MHX2Fl3sop71dUVLB/3z4sFjPZOdmzHn/NY/HCrY+7bv+yrGP4Ac6R+Eu08cYQKzCZYNyjpnoiMfk0KxWlJtT+/ojAZnC0L2gg14fo6PBrUDzcvPwZl/qN1O2qjfi43t72WcQ8DI52rjk1zAVWzMF2phWYGUed7hIn0ibAZyqjthQczhiNPWMsze/kwrM3fcCf2sLfq8H2LpwUYC1M4aSEEELMW1bZYyYmVjdQtELh1smTKZtIb28PJ0+dYv++fRw8+ArHj38YWskNhtuxsTGOH/+QkZGRWY9vjpOJb94Z5+pNf7g43XIfU46Bl3cUzGqMyg2NHK22+L/YtJ8Lm6C/s4lDHW58moU39+zkkCXwS1S7w7snWjgdvZqVu4FjuyopDb5+p5Udl+9Me04+SzV/0Pdxd3H40w66gyuUgVXl7YGvm1tOLtnV5eiP9TXNGbHSGf0xfqyP0IOrp7H6A5hNK4DpA230x/z6Mgb9+NQ28lxtuJQgGKKd7S3YFSVivprqxEkB9J/nSk8HfQUNlFWYsadotdunmaisKYH+VnrYgDX2j/ssx6zlRz/bz4bAdev4+Jeh4Ljxlbf4fv7fef+3TQxu/F+881L1lP6O5v/gvSaHf6zCnfzktW+Fvtea8yLv/7bYD8vkAAAgAElEQVRp3qvJQgghMkfWynUbsLed5wtv6n959PRMDbn5q/Ijwm288oW5erLChO2xb3C65T7/+vzclm26O5rY9lXsEoXqx6vg8il2uJVQ2D2yZwO9uiCKpYqjm7s4fOIU3YoSCK5Pc2yDm0Md7pjH9K1p4GKDhWPnTnFIN/bRPXD40w46WcNvDjzN2q7z7AiMsXfDBio13XH140WFCr3FqEvMrSiF9vOc8SihsFu3pRzP572MUhiq2Q1+jG8rL8eshetnFWsNtZ4WzpzzhMJlsL+qOLG7HqfQWsOeunY+bXPGnIOvsIbna4z0XT7PJd08tm7BH3J7WzndE7tEIbeiBKtngEt28BFuc8ahBMb10Ofxr+TaXR7KCqyYe9SY9b8+UxllBaD2O0Pv55qMKIqZjbsb2RhoFx3yE2kDULyxgTIGuNSjQsVcvltR8w2E2/yLv+edQEjd2NiITZsaSg1tf+adtvDXwfD7l3N2UBR8dS/z7wfyaf7gV7znUPBphTz3xr/x+hvEDbkL9bPr0wp57vvfwtp1kvfaUv//QyGEEHOX1XG5Be8SWhnRh9xXXz1ITo5xQcKtOjFzm2SM0d3RSnegBtKguHmvc5BDDWbKge5gI+0O7+oCr8HdyTtdxRytqmLvV1NXe32ahTeri2luPcX7bt3Yl7vZsauY3bkddGJhLXDLPUqwBvN0R2fcOkiD4zzv/fL8NGcyzc+IzYoVf4CL6KFYI8JWNH10V3vbUUPXyUN3v4uymhWYgFGzCSPBEgh/G3tvX8S5aGo/13tUUBQMipOe/hKspf7+Kv4yAE95A8+U1fDcLtCckUE3WEfsbD8fql81KB662wco2LwKm7kXdZoFV5PJhOrqQFUUcsvDYReFwEf+xlDbUc84xFk1Da4gmz2BABo4R7W3lTO94Xbm8gaeqW3kCcIBNpE25vIG6gpctJ0LrErHmoTqYZwSbDawO+Kfc4itgHzgnit4wnCt6fyMNbe+upf5fpWL5g+aAqvehTy3rYrOE78KBVKD4uDMR3+n+rUqam1NMeczn5/dYIDeYQ18MtD8H/yiKZGTFkIIsZRlLaVwG6QPuQu1cnv7vsLGNfOrob19f27Xau/mFzmyWtdXiyo9UFV6I1+h0+0GLJTnEpkEAXJXs8MMpYFyiGi3coGv73BBreTQpv1cqI4sXVhI/tVJaDvXMmV1LVaZAOh2UYgay1b3LButSkR/AFQnLk8J5bWN7CmNs/PBuGfG3RCCAdB/nBr2NKr0XQ7ckGW2UmACS6D0INq4iZmqG0L0YVc3gr82dpopBksgEtndQe1t5ZrpWepKyzHbY7eNbjNqq2VrKfRdnv7mMYPi5Mo5qN+1kyeIfTNdBPtXdLq+xY6XfsrPtyVWTuDTavnRgSqcF38fXl21PU51ARS+9FPefmlqn3uFwAJnz4ib4PDfZPb2z6wRJRZCCCEePUtmF4VoPT09fHziJMP37y9IWULfXZiYVOLupDCTiUmFvruz6xOqgWWQdz/2r8T6SwvmNIUp4tfUKhgUN++f/S/eC9TpHn2pakqNbsRc5/gxr8HRzn9Tw/O7aiFGmE1EMPBacXHtrH+MYHCG8A1a3YHVzWd2l85riy9722cMBrfI2lyLeu46g4H34m+PNY+wY1oRsVKaazLCeLj8QF9/HDp+Aufl8XiY8ldCnDZaYIVaURTKtzRSHtHKX9ZQF1jVnmmniGjBkHgm8DP0xpFtM9bNPnlwP9V08VGgNEEvfriMPdZCltfYmz7gL9a3+P7jddB2PaE+Qgghlp4lG3AB+vqi1zXn7p+T0NIH29bPrX9L3xz2wP1mMdtROXYuXGZQbbEwZUnWHFWyALywuhjUbs6GKwzCRt3cAtZaYi3vRjK4Ozl0stMfrDdVcfibHbx1O0a7+ZQo2J04a0owm8E+l/umgiUOupXFXJMRGI+co6ePS019gW20Sqmw9fLlHFf0wmUQgRdUD+OA0WQm4aVaHY/HE7qJbdDhoq6mFFvPdQYppL7UiAqYzTCIf/eCvssOgte0eKN/L9pguE+UyWSC8YFpQ36wjccwxs3Ln3Ez6v2Y+xWbTRhx0ReuOEhI8GfIV/cy77y0jcaNTfypbWo7X93L/KBaoePj/+Safu52F/eA/AIbs1mqndfPrhBCiLQU2iZMe6xmunZp4YtbCrfuTX296LHl095gduuev28i/KFTR7FQFnjJZ6nm7aoYVY/Kao5sWRP60remgSOrFZo7Y6+2GpQ7HO1SKa1u5Ne6sgufpZpjm1eH/v3XGyyRHTU3faMJncYcmDCZ5t5bUcyh/v4trMKD+UxlPFEeObimqXgSzKE+zcoTjQ2sM+muVWBFE5cTe6hu14OlbBNPFOramcrYGuMpaf4gHDbquItaUMI6k4bB0U6bq4CNuxt5fpcV++ct9LlMlG9p5PnNq3BdDu9T69Os2ArA2T59uLXVRc7fX0vroa/XMas2yeAr3MkPGyP/+9E0J84Yhw2WJmidJ6as0hqU6zRddFG4/cf8sE73PSjcyZuvxKgbme+8tVp++NOX2ajbss3W+Bo/qFbo/CpGMhdCCPHICK3g5ucX8HUqZ7IIfD74a5vCd+viP7I32q17/j4+3/TtDMod/ndrMRc3NXKhOrhNWCuHLRaOBmtl3V0cbh3kaHSJgruLd91VXDgQfmOmLb26O5o4TGN47MA4hz+97b/Ryt3JOcuLXDgQ3J7MzbFz50I3pS0lBkc7/2Py3xD1XG1ga652F1uDJQqePuymZ3luV3ALMV3tbCLj62pKn4t6Wtinuq261N5W/ofwPCC4TZgj9DG6QXFypd3K3tpNPFcW3ibM4Omjz1VCXU059s97sbd9RuiZIIoC+q/1K4qBG+hi1f7qz3PwWgeVW3byXJxt1ICE2iSDwXGe9p1v8fbPwseNVxbw5MHAVmLVB3j7ZwdCr2udJ/jFh9exN33Ab3mNN3R1uP5yh7YFf1CEQbnOHz8o4Cc/+z/8ILglmdbJX979XeTKshBCiEeOcuB7u0LLF7cGR1hhyUvlfBaFwQBPrdXYVBb/6WYTkwotff6V25nCbaabbc1mugo/+tYzJYD7d0dYQd8iBM75epTmKoQQQsSypGtwk8Xng9Z+hS+/hgorrFkJphz/ex4v3B6GHqfCg4epneejYwyPBwrmWL+aLiJvhttJedQ2ZpfOXZ/TTXGLLbdwFWbP3Qz+TgohhHjUZeQKrlh4wf1b6W9d0MffisXlv+mMWZWACCGEEEuNBFwhhBBCCJFWDDM3EUIIIYQQ4tEhAVcIIYQQQqQVCbhCCCGEECKtSMAVQgghhBBpRQKuEEIIIYRIKxJwhRBCCCFEWsnIBz0kS26OxuPFs+vz1SCMemW/USGEEEKIhSIBdwFZjLC1Ivajf+P5elhh1JukCQkhhBBCZKCMKlEotBVSUV6e6mkIIYQQQogkypiAqyjwwt5vs3//fioqKlI9HaHj05ZRuM3GxvqcVE9FCCGEEGkgY0oUNA1OnjzFwYOvsH/fPk6eOkVPT8+CHsPlVvjzP2bfJxG+NQ1c3LQ69HV/ZxOHOtyzO1iCfGYT1dvMTNxUyV5nZuLqEAND6VEnnM7nJoQQQgi/jFnBBRgeGeb48Q8ZGxtj/759C76Sm52l8c2VzOqf7KyZa3Z9axq42GDh2NmT7Dhxim1nu6BqJ8c2WBZ0/pEm8Q49ZCKJR0iddD43IYQQQmTMCm5QMOQmYyU3GTeZ+TQLb1YXw+A/eD+w2mtwd/JOVzFHV6+m8qsOupVkrkBO4lWTOHxKpfO5CSGEEJkrS8spY0PdKkbbOrjFSKrnsyiCIffVVw+yf98+Pj5xkr6+3lRPK7bc1ewwQ3PnbSAcZDvdbjAXszu3g+6FrlRwP2SCSSbcEKsqNvgxv1EXrIevDEZ81J9Xb6PEpDJgz6F0/XI0t5uuZpUJRcFXlEd9vTHUVhtyY0/gOPoxpjvGOEbKXshjZaBdxNxmODchhBBCPPqyjKtWsUIxY6zbAL13Uj2fRZO/Kp+cHCNjY2MM37+f6unMQKVvNOqlUZV+4pco+Ap38pPXvkVhjNVdTXPS/MHvOOuIvfJrULwMfOIFBUY+8aIP1sFwOnxlkO5AaPQH0SIqzS66bzwMtVUsFko8w3z5t8AStS7c6kNnXr2NUouC5iHiOE8+mYX94hDdqoJPW0bR9gKqthMRcqOP4QuE2+ybLr4MzCVvvZlszd9nunMTQgghRHrIemylCe1eO1duOlM9l0VTUVHB/n37GBsb4/jxDxkeGV6QcZNyk1mumVLgQsw3zZTlAjFWcA2O87z3y/PTDDz7YOfTcih7MofxG86I1VqD6mHgZg5V68zkdQ8zElxx1cYZ+GLcv4XFNP3vf+Eie3sBttBxllG0LoeRq0M41EBZhvKQoasqedtyyLOoOAKlBdHHwLKMbGBCnQyd48gNT/h9IYQQQqS9rFyjB/tNB5mykpWscAvhm8xmwz2uMTE512sfY2U3mWKEx6BxdRLIItsCBOta1Um8CfaPPE4OeWYw1hcT63JOmKc5htvLiGqmqL6YvKiSBiGEEEJkhizj+F36x8mIfJvMcAtJepLZqEo/xVNXaqdd2Z1ficJSEV3XGxZ/3gblIY6LdoYC9bvV37FMqd0VQgghRHrLGh924s2AX/yKAlu3bE1auE2a0TtcUCvZYYlMuNUWC6iDnB0lZt5LRomC/wYtyDZnAQ8j3jKasyBw81bcoeP2X06OGfDM1C5xBtVD9yeeQM2vBVuxysDQnIYSQgghxCPGMHo3M/ZJ0jT46OOP+NPx449OuAUMipv3OgcprWrgdYt/ddhnqebtKjPNncneIix6Ll7sNycxrrdSUhReqfYV5VG9fjkjV8P1t/H6j9ghZ91KCs3h/o89Fd7xYNrjmE1UzvC0M5/ZRMn6ZRGvadoD2Q5MCCGEyCBZ9zOkPAHA6/Xi9U5XDzA/yXqSmeF2K4ctjRzdvZ9DgdeaW07y1u3F/8ZN3LjLFTWPel19rKY9YKh5MHRD2HRGrtgZqLdRur2YosBrw1ecDJnCN5kFj9PJKqr1x3G76Woen/aGMYPqYcRs44kXgje6PcB+0ZXQ3IQQQgiRHpQD39sVWiK7NTjCCkteKucjhBBCCCHEvGTUo3qFEEIIIUT6k4ArhBBCCCHSigRcIYQQQgiRViTgCiGEEEKItCIBVwghhBBCpBUJuEIIIYQQIq1IwBVCCCGEEGlFAq4QQgghhEgrEnCFEEIIIURayUr1BNJJbo7G48Wz6/PVIIx65TGyQgghhBALRQLuArIYYWuFNnNDna+HFUa9SZqQEEIIIUQGyqgShUJbIRXl5amehhBCCCGESKKMCbiKAi/s/Tb79++noqIi1dMRQgghhBBJohz43q7QZ+q3BkdYYclL5XySamXeSg4efIUVK1Zw8tQpenp6FnT87CwosMyuRMHlVpiYTLx95YZGjlq62HH5zixnlzif2UT1NjMTN1Wy15mZuDrEwJDUCc+FXEshhBBi8WVUDe7wyDDHj3/IwYOvsH/fvgUPudlZGt9cObs+7nGNicmZA4/PUs0fdlVSqiiQvGyrM4l36CGsW4xjhfm0HMpeyIO0CoKpuZZCCCFEpgoFXE0zASMpnMriSGbITdZNZpUbGjm6epDDJ05RvmUfR+Yxx9mbxKsu6gHTmFxLIYQQYjFk1W9qwN7Wwh2sLNLSYMoFQ+6rrx5k/759fHziJH19vameVlzdHU3s6AAUhUW5Rc79kAkmmXBDToy3g6usKxX/CqvmdtPVrDKOkbIX8si+6aL7xsNQ+7x6GyUmla5mlQlFmdJ/+MogA0MK2etXUb1+ub9TfTErgfEbztBYwY/7jUp4ZTfYN+JYjNClmkJjBedHZUH4NW2cgb8NM6IbK3r8YL+JwNfB8xiw51C6fvmU844+n0SupRBCCCEWXtaVllZAwbhmFSzdjLfg8lflk5NjZGxsjOH791M9nQXnK9zJT177FoXK1I/5Nc1J8we/46wjdgmAQfEy8IkXFBj5xAvoQmBRHvX1RsZvOPlSFzyLimF8MIF5BcJt9k1XqH/eejPZmsrEjbtc6Y5dohA87vCVQboDr/sDaRGV5shArRStpOSGky//9jAUWqu/Y0EbGubLv3lDcyh5ysi1K97Q+E8+mYX94hDdqoJPW0bR9gKqthMRchWLhRKPfxwAny7UTzkfRZn2WgohhBAiObLAX57w2EpTqueyaCoqKti/bx9jY2McP/4hwyPDCzKuy63w53/Mvk8yGBznee+X56dpMfvj+rRlFK3LQRsajgiUBtWDQ01wPMsysoEJdTI0h5EbHv82F3GPm0PZkzmM33BGhF6D6mHgZg5V68zkdYdXYzW3m4HuSVAU/9zsZkps4wx8Me5/TfEyYs8jz7SMbE1jnCyK1uUwcnUodB4G5SFDV1XytuWQZ1FxBEoLNC08zlzPRwghhBDJ5a/BNVrJNXpSPJXFkaxwC8m9yWxJsOSQZ4aRm+PMeSXS7WVENVNUX0xeVAlA/ONODZFB4+okkEW2BQjWt3oeTh1TnURf6uxVJyH4N13gvIyBsohoE2bd2FHjzOl8hBBCCJFUWQDGVaswjt9N9VySLpnhFpbWk8zmU6KQTAblIY6Ldob0pQNLJBhG1/OGxZ/XUj4fIYQQIlNlBcsTxoc7Uj2XpFIU2Lpla9LC7VKTjBIF/w1TkG3OAh7GaPAArwp55uVx3tfNT/XQ/YknUFtrwVasMjA0++MazVkQuIlrzuWtM57XzGZ1PkIIIYRIKkOwPGH0bnrvX6Rp8NHHH/Gn48fTPtwmi0HxYr85iXG9lZKi8Eq1ryiPkiINg/KQCQ9gyyZP00LvlRZF7lRQsn5ZxLia9mDK9ln+sDnzcavXL2fkauRuCAt2XmYTlfXT732Q6PkIIYQQYvFkBcsT+sdTPZXk83q9eL1JqAcIWEo3mSXLxI27XFHzqNfVq2pDw1y74j+P+1+4yN5eQOl3ikPv9Q/lUBKodzWoHkbMNp54IXBDmPYA+0WX7uYuL31Xs6mvt/LE+vA2YTGPqz1gqHkw8RvcZjivTlZRrR/f7aareXzaG8ZmOh8hhBBCLL6MelSvEEIIIYRIf4ZUT0AIIYQQQoiFJAFXCCGEEEKkFQm4QgghhBAirUjAFUIIIYQQaUUCrhBCCCGESCsScIUQQgghRFqRgCuEEEIIIdKKBFwhhBBCCJFWJOAKIYQQQoi0kpXqCaST3ByNx4tn1+erQRj1ymNdhRBCCCEWigTcBWQxwtYKbeaGOl8PK4x6kzQhIYQQQogMlFElCoW2QirKy1M9DSGEEEIIkUQGAO0bayiv25LquSSVosALe7/N/v37qaioSPV0hI5PW0bhNhsb63My4vh59TY2bjORrWkxvxZCCCHE/GRpWj5rq9aA81qq55JUmgYnT57i4MFX2L9vHydPnaKnp2dBj+FyK/z5H7PvMxOftprfHHia7Uq4bX9nE4c63LOdYkJ8ZhPV28xM3FTJXmdm4uoQA0NSJ7wQfNoysk3z6C/fGyGEEGJGWWQbWY4X9f5YqueSdMMjwxw//mHSQm52lsY3V86uj3tcY2Jy+oDywpanWdt1nh2BQOtb08DFTY0cI3khFybxDj2EdUkaPg34tBzKXsiDWYRMg/IQx0U7DvB/rDAn8r0RQgghppNFzgqyATXVM1kkyQy5ybrJ7PTl/+K07mvD7VbeXV3MkdWrqfyqg+45B6VETOLNlB+OR458b4QQQohYsmpK8wEoqH4G+k/P0Dw9BEPuq68eZP++fXx84iR9fb2pntbS4X7IBJNMuCFWVWrwY3KjLlgPXxmMWMXMq7dRYlIZsOdQun45mttNV7PKhKLgK8qjvt4YaqsNubEncBz9GDMdYzoLcfzs9auoXr/c37C+mJXA+A0n3Tce4tOWUbS9gCJLoJ82zsDfhhmJmne8uQZXhlcG3ou4tjN8b4QQQggBWe3993i8xMjdrqupnsuiyl+VT06OkbGxMYbv30/1dGbFZ6nmX4uhv+tO3NVbX+FOfvLatyiM8b6mOWn+4HecdcTua1C8DHziBQVGPvEC4XbBcDh8ZZDuQOjyB8EiKs0uum88DLVVLBZKPMN8+bfAErUu3OpDW169jVKLguYh4jhPPpmF/eIQ3aoSCo1V24kIhrGOMe21W6jj37jLle7YJQrGSjNcHeJLXb+S7ebEwncg3GbfdPFl4FrmrTeTrfn7Tve9EUIIIYRfRu6DW1FRwf59+xgbG+P48Q8ZHhlekHGTdZOZns9SzR92VVKqdnP4q9G4gc7gOM97vzw/zUizD0Y+LYeyJ3MYv+GMCHQG1cPAzRyq1pnJ6w6vVGraOANfjIfmGK///S9cZG8vwBY6zjKK1uUwcnUIh+pvZ1AeMnRVJW9bDnkWFUfgo/noY8xl/vM5fiwTN0ZwoOt304vtySxygImZJmlZRjYwoU4S/B6N3PDMo15XCCGEyDwZF3CTFW4heTeZBVVuaORotQXcXRz+NNm1tzHECF9B4+okkEW2hXBBtzqJN8H+kcfJIc8MxsBH/9EmzNMcY47zn/Px48irt1FaFD6Gpo0nNke3lxHVTFF9MXkJllwIIYQQIlJGBdxkhltI3k1mPs3Cm3t2csii0NxykrduKzN/FD+PEoWlIrquN2xx5j2X4wdLDPLw0v//+Vez/eUOiR0zuMvCUKD+t/o7loRri4UQQgjhlzEBV1Fg65atSQu3yfTClp0cMg/y7sctnE4w5CSjRMF/gxNkm7OAhxFvGc1ZELj5Ke7QcfsvJ8cMeGZqN0+LcfzibPKYxH4xXKoRvDazYVA9dH/iCdQMW7AVqwwMzW4qQgghRKbKmEf1ahp89PFH/On48Ucq3Pq01ewqhubWxMNtshgUL/abkxjXWykpCq9U+4ryqF6/nJGr4VAXr/+IHXLWraTQHO7/2FPhHQOmPY7ZROU8njaWrOP7g3CYogQCc6BPybrE/470mU2UrF8W8ZqmPZDtwIQQQohZyJgVXACv14vXm3DF5qwl5SazXAtrgdJN+7mwKeo9zc2xc+d4f5Y3qs3HxI27XFHzqNfVp2raA4aaB0M3ZE1n5IqdgXobpduLKQq8NnzFyZApfJNX8DidrKJafxy3m67mxG4oW4zjGxQvfVezqa+38sT64DZhI3TeyAr109xuuq56qUq0REH1MGK28cQLwRv1HmC/6Ero2gohhBDCTznwvV2hJapbgyOssOSlcj5CCCGEEELMS8aUKAghhBBCiMwgAVcIIYQQQqSVjKrBFekt+hG3erLVlhBCCJE5JOCKtBF8jO1AvAYSboUQQoiMICUKQgghhBAirUjAFUIIIYQQaUUCrhBCCCGESCsScIUQQgghRFrJ6JvMli+DCqvGmpVgCjyB1eOF28PQ41R48DC18xNCCCGEELOXkQHXYICn1mpsKoPsLG3K+3VrYGISWvrgi1sKPl8KJimEEEIIIeYk4wJu9nKN79ZprM2foV2Wxrb1UJKv8dc2hYkHssWUEEIIIcSjIKNqcA0GEgq3emvz/X0MGXWlhBBCCCEeXRkV255aGz/ctt5Q+cOnTv7Y5OKWcyLivbX5/r7pau/mF7mwu5pKbeHOMdExk3HsdGGre5Y9ddZUT0PEsfGVt/j56zuxyc+uEEIsORlTovCNLNhUFvu9Ma+P631jbN1gYVXucnJXLJvSZlMZXLsN/5xM8kRTrHJDI0erLXHf7+9s4lCHexFnlFq+whr21lpx97VwqdeDubyBraXjtJ27jj3qyWg+zUr9rscx9rdyqdez6HMM0tR+Ln3ei7rAT27zaSYqtzRQbo4cN3htprb3X49C3Tyi2/pMZfzL5hIsUXN1XG/iS4eyYG3M5Q08U2aO6DMfPq0Q6yw+CUolW+NrvG79O7/48HqqpyKEEIsmq7j2WWzer7hy05nSiRTaCnlh77c5efIUwyPDMdtUVFSwdctWPvr4I7xe76zGL1sV+4YyANXr3y6hco0RQ5zffdlZGmWrFLrsszrsI6e7o4kdHf5/961p4GKDhWPnzvG+O/NqkH2aicrSgrgBbikIBu5rZ5tCgdtXWMO/VJhnNedgGKX9fMwAqA+IZ3TvB0PvnlLXlNBfvNEf9s8E5uEP4pvYSvT19ND7eQs3PfrjRs9hfm3U3lZOe2p4vqYWm33qHyezZVAcnH3/15yFJfsIaF/hTn7y2rcoVBS0zlTPRgghFpch1wjD9xypngemFWby8/M5ePAVVuatnPJ+RUUF+/ftw2Ixk52TPevx1zwWL9z6uOv2L8s6hh/gHIm/RBtvDJGuVmAywbhHTfVEYvJpVipKTaj9/RGBzeBoX9BArg/R0eHXoHi4efkzLvUbqdtVG/Fxvb3ts4h5GBztXHNqmAusmIPtTCswM4463SVeqDaeMZbmd3Lh2Rpf49+/D3/5f37FXzrl/1tCiMyTtUJRWLG+kZWayq1TZ1M2kd7eHk6eOsX+ffs4ePAVjh//MLSSGwy3Y2NjHD/+ISMjI7Me3xwnE9+8M87Vm/5fwqdb7mPKMfDyjoJZjeHTLLy5ZyeH3P/gsLsq/BG/dod3T7RwWhc+fJZq/rCrklLda80tJ3nrdvjrvZtf5Iilm3fvFHOk2gLuLg5/2kH5ln0cIeoYgfd4fFfc44bmZ1Hizmu2Eh4zdwPH9Od7p5Udl+9MP3b0NQqcY3fofFbzmwNPsz3wdfT1W0qiP9bXNGfESmf0x/ixPkIPrp7G6g9gNq0Apg+00R/h68sY9ONT28hzteFSgmCIdra3YFeUiPlqqhMnBdB/nis9HfQVNFBWYca+RFe758Kn1fKjn+1nQ+C6dXz8S/7U5v/3ja+8xffz/877v21icOP/4p2Xqqf0dzT/B+81+RcQ9CuqAJrzIu//tmneq8mx2Js+4BdNgKJQuOCjCyHE0pc1dqeFzttL4xdST8/UkIp3N70AACAASURBVJu/Kj8i3MYrX5irJytM2B77Bqdb7vOvz8/zV8HqBt7ubGLHCXcohB3ZsobTgUDnW9PAxU2raW45yaFAIPOHuX0cs5yPrG21VHHE0sqOE4EwqCiURx8jEASPvlTlD44n7sQ8bvXjVXD5FDvcSiiYHtmzgV5daJythMa0VHF0cxeHT5yiW1EC832aYxvccet4w2URpzikG/voHjj8aQedrOE3B55mbdd5dgTG2LthA5Va7HOJDhV6muak+YPfcXYBajLjya0ohfbznPEoobBbt6Ucz+e9jFIYqtkNfoxvKy/HrIXrZxVrDbWeFs6c84TCZbC/qjixux6n0FrDnrp2Pm2LXWbkK6zh+RojfZfPc0k3j61b8Ifc3lZO98QuUcitKMHqGeCSHXyE25xxKIFxPfR5/Cu5dpeHsgIr5h41Zv2vz1RGWQGo/c7Q+7kmI4piZuPuRjYG2kWH/IVqM1vBcJt/8fe8EwipGxsbsWlTQ6mh7c+80xb+Ohh+/3LODoqCr+5l/v1APs0f/Ir3HAo+rZDn3vg3Xn+DuCE31T+7QgjxKMsavasytZYtdfQh99VXD5KTY1yQcKtOzNxm3mO4u3jnq1FQFAzKHY52VbG9qpi92m3+xhp+01BMf2dTxGqjwd3JO13FHK2qYu9XuhVQ7Q7vfn57an2f/hjuTv7fwUqOFIfbGpQ7nBt8mu0WC5WaRrei0N3RSnfge2xQ3LzXOcihBjPlQPccr0VCY2p3eFcXeOOea4BPs/BmdTHNradCNb8Gxc17l7vZsauY3bkddGJhLXDLPUrw5/Z0R2fcOkiD4zzv/fL8NGcyzc++zYoVf4CL6KFYI4JUNH10V3vbUUPXyUN3v4uymhWYgFGzCSPBEgh/G3tvX8S5aGo/13vUwPfWSU9/CdZSf38VfxmAp7yBZ8pqeG4XaM7IoBusI3a2nw/VphoUD93tAxRsXoXN3Is6zd+3JpMJ1dWBqijklofDLgqBj/yNobajnnGI/eFHaAXZ7BngUuB8/NenlTO94Xbm8gaeqW3kCcLhdKHaoHoYpwSbDeyJVGXZCsgH7rmCJwzXms7PWHPrq3uZ71e5aP6gKbDqXchz26roPPGrUCA1KA7OfPR3ql+rotbWFHM+8/rZFUKIDJd1f5wl9/9JfchdqJXb2/cVNq6ZXy3a7fszXCi3O/6KaO7UYBbU6XYDFspzCacjVaWXGGIdI6ptr1uFqI0Q9m5+kSOrdf206csEEjHjmDHOIea5BuWuZocZSjft58Kmqce7lQt8fYcLaiWHNu3nQnVk6cJC8q9OQtu5limra7HKBEC3i0LUWLa6Z9loVSL6A6A6cXlKKK9tZE9pnJ0Pxj0z7oYQDHf+49Swp1Gl73LgZiuzlQITWAKlB9HGTcxU3RCiD7u6Efx1r9NMMVgCkcjuDmpvK9dMz1JXWo7ZHrvtXNsYFCdXzkH9rp08Qeyb6SLYv6LT9S12vPRTfr4tsXICn1bLjw5U4bz4+/Dqqu1xqgug8KWf8vZLU/vcKwRSfxuEEEKklSzvEr0DuKenh49PnGT4/v0FKUvouwsTk0rcnRRmMjGp0Hd33tNYdKF6VQZ592P/qqm/DGBpjakXv6ZWwaC4ef/sf/GevjzDHT/ozvVjXoOjnf+mhud31UKMMJuIYOC14uLaWf8YweAM4Ru0ugOrm8/sLp3XFl/2ts8YDJQflG2uRT13ncHAe/E/rp/Hf/+mFZh1X+aajDAeLj/Q1x+Hjp/AeXk8Hqb8lbAAbWbaKSJacKeEM4GfoTeObJuxbvbJg/uppouPAqUJevr63Uixx5ISBSGEmLvQPriaZgJmf/NWMvX1xVzDnJN/TkJLH2xbP7f+LX3z3AN31M0tYK1l6tJltcUCuOmdurg7f98sZjsqx86FSwKCx0v6mOapZRAvrC4GtZuzsc51mmsUzeDu5NDJzkBdcxWHv9nBW7djtJvPx7x2J86aEsxmsM+lTD1Y4nA5HJBzTUZgPHKOnj4uNfUFttEqpcLWy5dzXNELl0EEXlA9jANGk5mEl2p1PB5P6Ca2QYeLuppSbD3XGaSQ+lIjKmA2wyBl1JZC32UHwWtavLGBMlM43CfKZDLB+MC0IX9ObcwmjLjoC1ccJCT4M+Sre5l3XtpG48Ym/tQ2tZ2v7mV+UK3Q8fF/ck0/L7uLe0B+gY3ZLNVKiYIQQsxd+ElmxvR/YtIXtxRu3Zv6etFjy6e9wezWPX/f+fDX5KqUVjfya12phG9NA0erLTS3zm9Xg2kpFspyA8ezVPN2lXn69gs1prKaI1vWhL70rWngyGqF5s7Yq61xr5GlmmObV4f+/dcbouovNDd9o/M/pdhMmExz760o5lB/n6mM2tLwYD5TGU+URw6uaSqeBHOoT7PyRGMD60y6axWoucXlxB6q2/VgKdvEE4W6dqYytsZ4Spo/CIeNOu6iFpSwzqRhcLTT5ipg4+5Gnt9lxf55C30uE+VbGnl+8ypcl8N70Po0K7YCcLZPH25tdZHzN5c3UFfgoa/XseBtZstXuJMfNkb+f0HTnDhjDBksTdA6T0xZpTUo12m66KJw+4/5YZ3ue1C4kzdfiVE3IoQQYt6y6mvL6GjrhVWriF30mT58Pvhrm8J36+I/sjfarXv+Pj7f/I/f3dHENncDF/U1ppqbY2dPJu1BCobbrRy2WDgaPKa7i8OtgxydRzlBwmO6u3jXXcWFA+E3ZtrSq7ujicM0hscOjHP409uhG+vOWV7kwoHgzXjuJfsgCoOjnf8x+W92eq42sDVXu4utwRIFTx9207M8tyu4hZiudjaR8XU1pc9FPS3sU91WXWpvK/9DeB4Q3CbMEfoY3aA4udJuZW/tJp4rC28TZvD00ecqoa6mHPvnvdjbPiP0rBNFAf3X+hXFwA10sWp/9ec5eK2Dyi07eS7ONmrAgrWZLYPjPO073+Ltn4XHjFcW8OTBwFZi1Qd4+2cHwufaeYJffHgde9MH/JbXeENXh+svd2hbsg+KEEKIR5ly4Hu7QksKtwZHWGHJS+V8FoXBAE+t1dhUFv/pZhOTCi19/pXbhQi34tEz25rNdBWspS0zeaYEcP/uCCvom2eYXAyP0lyFEELMT9bMTdKPzwet/Qpffg0VVlizEkw5/vc8Xrg9DD1OhQcPUztPkWpjeDxQMMf61XQReTPcTsqjtjG7dO76nG6KW2y5haswe+5m8HdSCCEyR0au4AqRqOD+rfS3Lujjb8Xi8j9umFmVgAghhHh0ScAVQgghhBBpxTBzEyGEEEIIIR4dEnCFEEIIIURakYArhBBCCCHSigRcIYQQQgiRViTgCiGEEEKItCIBVwghhBBCpJWMfNBDsuTmaDxePLs+Xw3CqFf25RRCCCGEWCgScBeQxQhbK2I/+jeer4cVRr1JmpAQQgghRAbKqBKFQlshFeXlqZ6GEEIIIYRIoowJuIoCL+z9Nvv376eioiLV0xFCCCGEEEmSUY/qXZm3koMHX2HFihWcPHWKnp6eBR0/OwsKLLMrUXC5FSYmZ27nW9PAxU2rQ1/3dzZxqMM92ykmxGc2Ub3NzMRNlex1ZiauDjEwJHXCcyHXUgghhFh8GbOCCzA8Mszx4x8yNjbG/n37FnwlNztL45srmdU/2VkzB2LfmgYuNlg4dvYkO06cYtvZLqjaybENlgWdf6RJvEMPmUjiEWLxaTmUfNtGSdHs/lBY2lJzLYUQQohMlXE3mQVD7sGDr7B/374FXclNxk1mPs3Cm9XFMPgP3nf7V/4M7k7e6Srm6OrVVH7VQbeSzBXBSbxqEofPKHIthRBCiMWQVZyjMZhh21QFQ+6rrx5k/759fHziJH19vameVmy5q9lhhubO20D4+9TpdoO5mN25HXQvdKWC+yETTDLhhpwYb/u0HMpeyGNlIFhrbjddzSrjGCl7IY/smy66bzwMtc+rt1FiUulqVplQlCn9h68MMjCkkL1+FdXrl/s71RezEhi/4QyNFfy436gL9MG+EcdihC7VFBorOD8qC8KvaeMM/G2YEd1Y0eMH+00Evg6ex4A9h9L1y6ecd/T5JHIthRBCCLHwsmzryrnf1os3qauAS0/+qnxycoyMjY0xfP9+qqczA5W+0aiXRlX6iV+i4CvcyU9e+xaFMb6vmuak+YPfcdYR+3tuULwMfOIFBUY+8aIP1r6iPOrrjYzfcPKlLngWFcP44MxnEgy32Tddof55681kayoTN+5ypdv/PlG1qsHjDl8ZpDvwuj+QFlFpjgzUStFKSm44+fJvD0Ohtfo7FrShYb78mzc0h5KnjFy74g2N/+STWdgvDtGtKvi0ZRRtL6BqOxEhV7FYKPH4xwHw6UL9lPNRlGmvpRBCCCGSI1SioGkmYCSFU1k8FRUV7N+3j7GxMY4f/5DhkeEFGdflVvjzP2bfZ1q5ZkqBCzHfNFOWC8RYwTU4zvPeL89PM/Dsg5ZPW0bRuhy0oeGIQGlQPTjUBMezLCMbmFAnQ3MYueHxb3MR97g5lD2Zw/gNZ0ToNageBm7mULXOTF53eDVWc7sZ6J4ERfHPzW6mxDbOwBfj/tcULyP2PPJMy8jWNMbJomhdDiNXh0LnYVAeMnRVJW9bDnkWFUegtEDTwuPM9XyEEEIIkVxZeD3+1dscK3An1fNJumSFWwjfZDYb7nGNicm5hqEYK7vJZMkhzwwjN8eZ80qk28uIaqaovpi8qBKA+MedGiKDxtVJIItsCxCsb/U8nDqmOom+1NmrToIp8ryMgbKIaBNm3dhR48zpfIQQQgiRVFnD9xyAgnHVKliiZagLJZnhFpL0JLNRlX6Kp67UTruyO78ShWQyKA9xXLQzpC8dWCLBMLqeNyz+vJby+QghhBCZKqvvvoKmmXhspWnm1o8wRYGtW7YmLdwmzegdLqiV7LBEJtxqiwXUQc6OEjN/JaNEwX/DFGSbs4CHMRo8wKtCnnl5nPd181M9dH/iCdTWWrAVqwwMzf64RnMWBG7imnN564znNbNZnY8QQgghksq/D67RSq4xxTNJMk2Djz7+iD8dP/7ohFvAoLh5r3OQ0qoGXg88RMJnqebtKjPNncneIix6Ll7sNycxrrdG7FPrK8qjpEjDoDxkwgPYssnTtNB7pUWROxWUrF8WMa6mPZiyfZY/bM583Or1yxm5GrkbwoKdl9lEZf30ex8kej5CCCGEWDxZAMZVqzDiSvVcks7r9eL1TlcPMD9JuckMMNxu5bClkaO793Mo8Fpzy0neur34H4FP3LjLFTWPel29qjY0zLUr/rnc/8JF9vYCSr9THHqvfyiHksAHBAbVw4jZxhMvBG4I0x5gv+jS3dzlpe9qNvX1Vp5YH94mLOZxtQcMNQ8mfoPbDOfVySqq9eO73XQ1j097w9hM5yOEEEKIxZdRj+oVQgghhBDpL6Me1SuEEEIIIdKfBFwhhBBCCJFWJOAKIYQQQoi0IgFXCCGEEEKkFQm4QgghhBAirUjAFUIIIYQQaUUCrhBCCCGESCsScIUQQgghRFrJmrlJ+lq+DCqsGmtWginwRFaPF24PQ49T4cHD1M5PCCGEEELMXkYGXIMBnlqrsakMsrO0Ke/XrYGJSWjpgy9uKfh8KZikEEIIIYSYk4wLuNnLNb5bp7E2f4Z2WRrb1kNJvsZf2xQmHiiLM0EhhBBCCDEvGVWDazCQULjVW5vv72PIqCslhBBCCPHoyqjY9tTa+OG29YbKHz518scmF7ecExHvrc33943Hp1l4ffeLXNhdTaUWv10sezfPrd98JXrcVM3vUWCre5Y9ddZUT0PEsfGVt/j56zuxyc+uEEJknIwpUfhGFmwqi/3emNfH9b4xtm6wsCp3Obkrlk1ps6kMrt2Gf04u3Jx8moVyy+z6VG5o5Gh1/E79nU0c6nDPc2aPDl9hDXtrrbj7WrjU68Fc3sDW0nHazl3HrkSWlfg0K/W7HsfY38qlXs+izzFIU/u59HkvqrKwZS8+zUTllgb+//bu/imqM8/7+Pt0yAL2aVCku0UTaFDAAEYSfMiMGjEaN7sTNbPZODNV1v7gbO5Jav6Au1IzbjabyqTmL3Cc7PiTNXeN2ZlE3dqdcY1C1KkxwkQjIg8KjUaxH6JAn+Zhg33uH/rpdNMN3dDQCN9XVaqk+zrnus5pCB+u8z3XKVdj9xs+NxPbB8+HzTCO+LYBs4PvbCzFEjdW9/UmvnIrKbeJ7C/+XHja+azNg1rewAsONeE20xHQbVjTuFIz1wJ6LT/6+V7WGs6Z+8K/c7jJncVRCSHEwpFTUvsi9tEbXLnlyepAbHYbr+z+W06ePMXA4EDCNhUVFWzetJlPPv2E0dHRtPbvWJ74hjIAbTS4XELlqnxMSX635uboOJYrdLkmvmdSfBw5+58cAUgjtExnu+6OJrZ1BP8dWNXAxQYLx86d44hv8dUIB3QzlWXFSQPcfBAO3NfONkUCd8BWw3cq1LTGHA6jtDcnDIDGgHjG8H449O4s804I/SXrgmH/TGgcwfC5gc3En08/vV+0cMtv7Dd+DFO3sde9SF2xN+ZchGm9rZz21/ByTS1218Q/TtJlUtycPfIhZyGtn8m5sn7/Xoou/ob3QoE2UPc67732z7yNhFwhhMgEU0E+DDzI/v9QzUtUioqK2L//DZYWLp3wfkVFBXv37MFiUcnNy017/6uWJQu3Ab7xBadl3QPf4hlMPkWbbB8iW5ZgNsOIX8v2QBIK6FYqysxofX0xgc3kbs9oIDeG6Pjwa1L83Lr8OZf68qnbURtzud7V9nnMOEzudq55dNRiK2q4nXkJKiNok53iFNoEbDXUFU8M2TH8w8zPTzLzrn38YUyQNbX9nj906lirn5GSCiGEyICcJYrCkjWNLNU17pw6m7WB9Pb2cPLUKfbu2cP+/W9w/PjHkZnccLgdHh7m+PGPGRwcTHv/apJMfOveCFdvBX/Jn255iDnPxOvbitPaBwRrVQ9Zujn4WQfd4Zk6SzW/3VFJmeEX+oWWk7xzV0m4XScFvL1zOwd8f+WgrypaiqDf4/0TLZxOYyYqoFuC+7Iok++jYC3HjGO818q2y/cm33f8cfm6Yo9bX8kv9z3P1tDX8cc8n8Rf1td1T0wIi7+Mn+gSenj2NNH2AKp5CTB5oI2/zG8sYzDun9pGdtVGSwnCIdrT3oJLUWLGq2sePBRDXzNXejpwFjfgqFBxZWG2u8RWjNbXOuOZ2Xjxl/o7Pv2A37UF/73ujXf4ftGfOfKrJvrX/SPvvVY9YXtjWUDAtp2fvvndyGetey5y5FcTZ5uFEELMfznD91rovDs/Lu/29EwMuUXLi2LCbbLyhelaX2HGvuxvON3ykH962Zax/QZWNXBxw0outJzkwF1j4N3DMUvz5HWyKxt4t7OJbSd8kbB4aNMqTk8RPI2qn6mCy6fY5lMiYffQzrX0GoIoliqObuzi4IlTdCtKaHzPc2ytL+n4omURpzhg2PfRnYRC+ip+ue95nu5qZltoH7vXrqVSN/Rr3F9cqDDSdQ8XPvo1ZzNQk5lMQUUZtDdzxq9Ewm7dpnL8X/QyhC1Ssxu+jG8vL0fVo/WzirWGWn8LZ875I+EyvL2meHB5n8FmrWFnXbDWNJGArYaXa/JxXm7mkmEcmzcRDLm9rZzuSVyiUFBRitV/m0suCBBtc8athPbrx+kPzuS6vH4cxVbUHi1h/W/A7MBRDFqfJ/J+gTkfRVFZ91Ij60Lt4kP+VG0CuhV7MYy4YfXGF6N/TMywFjkcbo2X+tc1NmLXJ4ZSU9vvea8t+nU4/P7hnAsUhUDd6/zrviIufPQLDrsVArqNXW/9mJ+8RdKQm8nv3YBtO1urwHPxhgRqIYTIgJyhbzQm1tNljzHk/vCH+8nLy89IuNXGpm6TqX0E9JX8sqGEvs6mmJlLk6+T97pKOFpVxe4bk8zI+rp478YQKAom5R5Hu6rYWlXCbv1uyrO43R2tdIc+V5Pi43BnPwcaVMqB7nAj/R7vGwLvVOML6Bberi7hQuupSM2vSfFx+HI323aU8FJBB51YeBq44xsi/H11uqMzaR2kyd3M4Q+aJzmSSY7XbsVKMMDFbKFYY8JWPGN013rb0SLnyU93nxdHzRLMwJBqJp9wCUSwjavXGXMsutbH9R4t9Fl56OkrxVoW3F4jWAbgL2/gBUcNu3ZEb6oKC9cRe9qbI/WrJsVPd/ttijcux672ok3y96fZbEbzdqApCgXl0bCLQuiSf36k7ZB/BBJfnIjMIKv+21wKHU/w/LRypjfaTi1v4IXaRp4lGmBTaQNgrVmL/3LsHxOREK8ooPkZoRS7HVypVE3ZiykCHnjDBwzXmpqnrLkN1L3O96u8XPioKTTrbWPXlio6T/wiEkhNipszn/yZ6jerqLU3JRzPjL53jeMJBWWr988cCQVuIYQQM5PzcIT5lG+B2JCbqZnbuw8V1q2aWW3b3YcpnqiCiSEvrNPnAyyUFxCbtIx8voSznenavfFVDq007EePmwHWNHpjX5l8fAUr2aZC2Ya9nN8wsb87BcDX9zivVXJgw17OV8eWLmRScHYS2s61TJjxSlQmAIZVFOL2Za97kXVWJWZ7ADQPXn8p5bWN7CxLMts44p9yBjIcAIP91LCzUcN5OXRDlmql2AyWUOlBvBEzU1U3RBjDrmEPwdrYSYYYLoFIZUZV623lmvlF6srKUV2J28a3Cf+hoPV1JAjxpVTYe/nKDSbFw5VzUL9jO8+S+Ga6GK4bdHq/y7bXfsa/bEmtnCCg1/KjfVV4Lv4mOrtqf4bqYrC99jPefW3iNg9swCzdpmBvfJO3tlqlHEIIITIsZ3Se/g+1p6eHT0+cZODhw4yUJTi/gbFxJelKClMZG1dwfjPjYcyJSA0s/bz/aXAmNlhakJn9J6+pVSIrQxwO1ekefa1qQo1uzFineZnX5G7nf6jh5R21MNmNS5MIB14rXq6dDe4jHJwheoNWd2h284WXymZ0Wd3V9jn9oZlLx8ZatHPX6Q+9l3x5rBn8fJqXoBq+LDDnw0i0/MBYfxzpP4Xj8vv9TPgrYbI2mp8RAP/kSXuqlSLihVdKOBP6Hnrr0JYpg+L6/XuppotPEsyUGut3YyXe10xKFMIlENusSrTfefr/YiGEeBxF1sHVdTOQ/s1bs8npjJ9fnL7/HYcWJ2xZM73tW5xprIE75OMO8LRl4jRotcUC+OidOLmbOU+VsBWNY+eiZQbhfmOocSULwCsrS0Dr5myi8U1yXPFMvk4OnOwM1SJXcfCpDt65m6DdTC7zujx4akpRVXBNp4w8XOJwORqQC8z5EIxj0TH6nVxqcoaW0SqLzDhOR7QMIvRCKPzlm1VSnqo18Pv9kZvY+t1e6mrKsPdcpx8b9WX5aICqQj8OasvAedlN+JyWrGvAYY6G+1SZzWYYuT1pyI9pow/j90NxwmP04w+/pJrJx4szWnGQkvD3UHCprS00rmvid20T2wXqXucfqhU6Pv0PrhnH7vLyACgqtpPOVO1MvnfX7/8xW4u7+MP7cWMRQgiREdEnmeUv/CcyfXlH4c6Dia+vWPbkpDeY3XkQ3DZVwbpZjbLqRj40lEUEVjVwtNrChdb0VkSYFsWCoyDUr6Wad6vUBG1WcmjTqpjxHVqpcKEz8Wxr0uOyVHNs48rIvz9cG/cgCt2Hc2jmh5SYGbN5+lsrihrZPmB2UFsW3VnA7ODZ8tid67oWDWRTCOhWnm1sYLXZcK5CNbd4Pbgidbt+LI4NPGsztDM72JzgKWnBIBw15P4GrbiU1WYdk7udNm8x615q5OUdVlxftOD0minf1MjLG5fjvRxdpzZ845enffJwa6+LHb9a3kBdsR9nrzvlNuFQbzzGgG6lfmMpqvd23Nq5qQvYtvODxtifW1334EmQUcOlCXrniQmztCblOk0Xvdi2/jM/qDN8BrbtvP1GgrqRGQrotdRUQecJCbdCCDFbcuprHXS09cLy5UwoyFxgAgH4rzaFv69L/sjeeHceBLcJBNLrq7ujiS2+Bi4a61V1H8fOnpz1hzKY7rZy0GLhaLhvXxcHW/s5Gl+i4OvifV8V5/dF35hqSa/ujiYO0hjdd2g/Bz+7G7zRytfJOcurnN8XXp7MN28fRGFyt/MXc/CGqF21obv6271sDpco+J24zC+ya0d4CTFD7Wwq+zfUlO6Ke1rYZ4alurTeVv5CdBwQXmHAHblsbVI8XGm3srt2A7sc0WXCTH4nTm8pdTXluL7oxdX2OZFnkSgKGL82ziiG6mIT1f4aj7P/WgeVm7azK8kyakBKbUzudk77HXxn43Z21YaX4Uq+skQqTO5m2re/w7s/j/abrCxg/f7QUmLV+3j35/uix9p5gn/7+Dqupo/4FW/ylqEON1ju0Jb50oHQzXGJan7nYuUQIYRYDJR939sRmbK40z/IEkthNsczJ0wmeO5pnQ2O5E83GxtXaHEGZ25TCbe7N77KIf465RqyInPSrdlcqMK1tA6zf0IAD66OsATnNOuU59LjNFYhhBDzW87UTRaeQABa+xS++hoqrLBqKZjzgu/5R+HuAPR4FL59lOL+dAvlFui7N3ldqsi0yWo7F4/Ym+G2Ux63jNmlc9envdbsXCqwLUf1f7OIP0khhBCZsigDbti3j6DzvkLn/Rnu6KkqDqgax+7O5p1jIl50qakGNtOa0cffPo7CN8NN8BiE2+DjhsF5efoPfhBCCCHCFmWJQqZUrm2MPE53Pj+OVgghhBBiMVnUM7gz1d3RxLaO8FcSboUQQggh5gPT1E2EEEIIIYR4fEjAFUIIIYQQC4oEXCGEEEIIsaBIwBVCCCGEEAuKBFwhhBBCCLGgyCoKGVSQp/NMSXrb3OiHoVFZgUEIIYQQIlMk4GaQJR82VyR+9G8yXw8oDI3O0oCEEEIIIRahRVWiYLPbqCgvz/YwhBBCCCHELFo0AVdR4JXdf8vevXupqKjI9nCElHa0rAAAGSNJREFUQUB/AtsWO+vq87I9FCGEEEIsADkA+rIanl9j5c7Jk9kez6zRdTh58hT797/B3j17OHnqFD09PRntw+tT+P1f098mFYFVDVzcsDLydV9nEwc6fOl1lqKAaqZ6i8rYLY3c1SpjV+9z+/7CqBNeyMcmhBBCiCCTvqyG51aD84umbI9l1g0MDnD8+McMDw+zd8+ejM/k5uboPLWUtP7LzZm6ZjewqoGLDRaOnT3JthOn2HK2C6q2c2ytJaPjjzXO6P1HjM1iD9mzkI9NCCGEEDlrV+fjamvhobI4ZrHCIXc2ZnJn4yazgG7h7eoS6P8rR0KzvSZfJ+91lXB05Uoqb3TQPauf3Tij2izuPqsW8rEJIYQQi1cO/R30L7JlqsIh94c/3M/ePXv49MRJnM7ebA8rsYKVbFPhQuddIPo5dfp8oJbwUkEH3ZmuVPA9YoxxxnyQqCo2fJk/3xCsB670x1zqL6y3U2rWuO3Ko2zNk+g+H10XNMYUhcCKQurr8yNt9fs+XCn0Y9zHZH2MkI/jlUKWhtrFjG2KYxNCCCHE4y+n72steAfWIlO0vIi8vHyGh4cZePgw28OZgoZzKO6lIY0+kpcoBGzb+emb38WW4LPVdQ8XPvo1Z92JP3eTMsrtP42CAoN/GsUYrMPhdOBKP92h0BgMoiuoVL1033wUaatYLJT6B/jqj6EpakO4NYbOwno7ZRYF3U9MP+vX5+C6eJ9uTSGgP8GKrcVUbSUm5Mb3EQiF29xbXr4KjaVwjUquHtxmsmMTQgghxMKQMxqeHdOtwGB2RzNHKioq2LtnD8PDwxw//jEDgwMZ2e+s3GRWoFIGnE/4poqjAEgwg2tyN3P4g+ZJdpx+sAvoeTjW5zFy0xMzW2vS/Ny+lUfVapXC7gEGI99TI9z+ciTyB1Sy7R9+6SV3azH2SD9PsGJ1HoNX7+PWQmUZyiPuX9Uo3JJHoUXDHSotiO8DyxPkAmPaeOQYB2/6F+UfcUIIIcRiFXnQQ9GaZ/j6/s1sjmVOzFa4hehNZunwjeiMjU83fCWY2Z1NCcJj2Ig2DuSQawHCda3aOKMpbh/bTx6FKuTXl5DodI6pk/ThG2VQU1lRX0JhXEmDEEIIIRaH4DJhupXCZdkeyuybzXALs/QksyGNPkomztROOrM7sxKF+SK+rjcq+bhNyiPcF13cD9XvVv+dZULtrhBCCCEWtuAMbr6Z3CwPZLYpCmzetHnWwu2sGbrHea2SbZbYhFttsYDWz9khEua92ShRCN6gBblqDvAo5q18NQdCN28l3XXS7Z8kTwX8U7VLnUnz0/0nf6jm14K9ROP2/WntSgghhBCPmeCTzEY8DI1keSSzTNfhk08/4XfHjz8+4RYwKT4Od/ZTVtXATyzB2eGApZp3q1QudM72EmHxYxnFdWuc/DVWSldEZ6oDKwqpXvMkg1ej9bfJth90Qd7qpdjU6PbLnouueDBpP6qZyimedhZQzZSueSLmNV3/VpYDE0IIIRYRZd/3dugQLFP4+v5NllgKsz2mx1ZuDhRb0itR8PoUxsanble5tpGj1dFVEy60nOSdu9m55D5hmS/9W1wXvZEbwiC6hFei0oDCejtlK4xLjHkYXV2M3T/ItSvReo3cNcupXvNktJ8ky4TF92Hcf6KxCSGEEGJhiwRcgDv9gxJwhRBCCCHEY82U7QEIIYQQQgiRSRJwhRBCCCHEgiIBVwghhBBCLCgScIUQQgghxIIiAVcIIYQQQiwoEnCFEEIIIcSCIgFXCCGEEEIsKBJwhRBCCCHEgiIBVwghhBBCLCg52R7AQlKQp/NMSXrb3OiHoVF5jKwQQgghRKZIwM0gSz5srtCnbmjw9YDC0OgsDUgIIYQQYhFaVCUKNruNivLybA9DCCGEEELMokUTcBUFXtn9t+zdu5eKiopsD0cYBPQnsG2xs64+b1H0X1hvZ90WM7m6nvBrIYQQQszMoilR0HU4efIU+/e/wd49ezh56hQ9PT0Z7cPrU/j9X9PfJh2Vaxs5auli2+V76XWUhoBqpnqLytgtjdzVKmNX73P7vtQJZ0JAf4Jc8wy2l89GCCGEmNKiCbgAA4MDHD/+8ayF3NwcnaeWpreNb0RnbHzqgBKwVPPbHZWUKQrMXrY1GGf0/iNYPRd9PZ4Ceh6OVwohjZBpUh7hvujCDcHLCtMin40QQggxmUUVcGF2Q+5s3WRWubaRoyv7OXjiFOWb9nBoBmNM3zij2px2KFImn40QQgiRSM5zG7fz8GYTzoeL5zJnOOT+8If72btnD5+eOInT2ZvtYSXV3dHEtg5AUZiTW+R8jxhjnDEfJKpKDV8mzzfMQA5c6Y+ZxSyst1Nq1rjtyqNszZPoPh9dFzTGFIXAikLq6/MjbfX7Plwp9GPcx1R9TCYT/eeuWU71mieDDetLWAqM3PTQffMRAf0JVmwtZoUltJ0+wu0/DjAYN+5kYw3PDC8NvRdzbqf4bIQQQggBOTfuaaxdXcuyy9e5k+3RzKGi5UXk5eUzPDzMwMOH2R5OxgVs2/npm9/FliBA6bqHCx/9mrPuxEHQpIxy+0+joMDgn0aBaLtwOBy40k93KHQFg+AKKlUv3TcfRdoqFgul/gG++mNoitoQbo2hrbDeTplFQfcT08/69Tm4Lt6nW1MiobFqKzHBMFEfk56XTPV/8xuudCcuUcivVOHqfb4ybFe6VU0tfIfCbe4tL1+FzmXhGpVcPbjtZJ+NEEIIIYJyRoZHsj2GOVdRUcHePXsYHh7m+PGPGRgcyMh+5+Ims1SZ3M0c/qB5khbp9xvQ83Csz2Pkpicm0Jk0P7dv5VG1WqWwOzpTqesj3P5yJBI6k23/8EsvuVuLsUf6eYIVq/MYvHoftxZsZ1Iecf+qRuGWPAotGu7Qpfn4PqYz/pn0n8jYzUHcGLa7NYp9fQ55wNhUg7Q8QS4wpo0T/owGb/pnUK8rhBBCLD45z6+xog/3sVhi7myFW5jdm8zmhQThK2xEGwdyyLUA4fCnjTOa4vax/eRRqEJ+6NJ/vDF1kj6mOf5p959EYb2dshXRPnQ9xZ8w3yiDmsqK+hIKUyy5EEIIIUSsnC8vh2b5FsEv0dkMtzC/nmQ2kxKF+SK+rjdqbsY9nf7DJQaFjNL338HZ7GC5Q2p9hldZuB+q/63+O0vKtcVCCCGECFo0qygoCmzetHnWwu18MxslCsEbnCBXzQEexbyVr+ZA6OanpLtOuv2T5KmAf6p2MzQX/ZfkUsg4rovRUo3wuUmHSfPT/Sd/qGbYgr1E4/b99IYihBBCLFYmx7LgjKOe58jyUGaXrsMnn37C744fX/DhdraYlFFct8bJX2OldEV0pjqwopDqNU8yeDUa6pJtP+iCvNVLsanR7Zc9F10xYNJ+VDOVM3ja2Gz1HwzCUYoSCsyhbUpXp/53ZEA1U7rmiZjXdP1bWQ5MCCGESEOO86HCstUv4ihS+Lr3arbHM6tGR0cZHZ2FeoCQ+XST2WwZu/kNV7RC6g31qbr+Lfcv9EduyJrM4BUXt+vtlG0tYUXotYErHu6bozd5hfvpZDnVxn58ProupHZD2Vz0b1JGcV7Npb7eyrNrwsuEDdJ5Myeyne7z0XV1lKpUSxQ0P4OqnWdfCd+o9y2ui96Uzq0QQgghgpR939sRmaK60z/IEkthNscjhBBCCCHEjJiyPQAhhBBCCCEySQKuEEIIIYRYUBbNKgpi4Yt/xK2RLLUlhBBCLB4ScMWCEX6M7e1kDSTcCiGEEIuClCgIIYQQQogFRQKuEEIIIYRYUCTgCiGEEEKIBUUCrhBCCCGEWFAW9U1mTz4BFVadVUvBHHoCq38U7g5Aj0fh20fZHZ8QQgghhEjfogy4JhM897TOBgfk5ugT3q9bBWPj0OKEL+8oBAJZGKQQQgghhJiWRRdwc5/U+fs6naeLpmiXo7NlDZQW6fxXm8LYt7LElBBCCCHE42BR1eCaTKQUbo2eLgpuY1pUZ0oIIYQQ4vG1qGLbc08nD7etNzV++5mH/9fk5Y5nLOa9p4uC286m3Rtf5fxL1VTqs9tPOn3N5ZgeN/a6F9lZZ832MEQS6954h3/5yXbs8r0rhBCL0qIpUfibHNjgSPze8GiA685hNq+1sLzgSQqWPDGhzQYHXLsL/zs+ywOdROXaRo5WW5K+39fZxIEO3xyOKLsCthp211rxOVu41OtHLW9gc9kIbeeu44p7allAt1K/4xny+1q51Ouf8zGG6Vofl77oRcvwU9UCupnKTQ2Uq7H7DZ+bie2D58NmGEd824DZwXc2lmKJG6v7ehNfuZWU2qjlDbzgUJOO2329iR7zBl5wqDH7nYmAbsOaxlWabAjUvc57r1VHvnZf+HcON7mzOCIhhFhYFk3AdSxPfEMZgDYaXC6hclU+piS/X3NzdBzLFbpcszXCqXV3NLGtI/jvwKoGLjZYOHbuHEd8i68+OKCbqSwrThrg5oNw4L52tikSuAO2Gr5ToaY15nAYpb05YQAMh0j39SbOGN4Ph96dZd4Job9kXTDsnwmNIxjEN7CZ+PPpp/eLFm75jf3GjyF5G623lTO9E4/JXvciddwIHU8rp/01vFxTi9018Y+TdJkUN2ePfMhZmJePZw7Uvc6/7ivi/K8/4KxbIWDbzk/f/DFv8xsJuUIIkSGLpkRh1bJk4TbAN77gtKx74Fs8g8mnaJPtQ2TDEsxmGPFr2R5IQgHdSkWZGa2vLyawmdztGQ3kxhAdH35Nip9blz/nUl8+dTtqYy7Xu9o+jxmHyd3ONY+OWmxFDbczL0FlBG2yU5xKmzgBswNHsR9nryHM+YeZn59kZgV0G7u2VEHXnzkb+rxM7mb+cNGLtfoZKakQQogMyXlu43Ye3mzC+XD+zXRkkpqb+PVb90a4eiv4i/50y0PMeSZe31ac1j4AAvpKfrnvebaGwsyFlpO8c1eJvP50V3NM+cDuja9yyNLNwc866DbOMhWs5diOSsrCr91rZdvle6kfKBDQLby9czsHLKF96Pd4/0QLp+Nns6bRV8BSzW+N2/i6Yo4h2XmYj+Iv6+u6J2amM/4yfqJL6MZL8PHbA6jmJcDkgTb+Mr+xjCHmEn9tI7tqo6UE4RDtaW/BpSgx49U1Dx6Koa+ZKz0dOIsbcFSouLI82x3QzVTWlEJfa9yM73T2VcuPfr6XtaHz1vHpB/yuLfjvdW+8w/eL/syRXzXRv+4fY8oBwoxlAcFZ1O9GPmvdc5Ejv2qa8WzyBPZnqC6GzottGGfC+70PYEsVtfYmXDKJK4QQM5Zz457G2tW1LLt8nTvZHk0WrK8wY1/2N5xuecg/vWyb1j6MIXZbKMTuXruWSr2DznR2ZKni6MYuDp44RbeihMLk8xxb60urtrb6mSq4fIptPiUSdg/tXEuvMUxPo69oWcQpDhj2fXQnHPysg05WJT0P3QmCQnyoMNJ1Dxc++nVklms2FFSUQXszZ/xKJOzWbSrH/0UvQ9giNbvhy/j28nJUPVo/q1hrqPW3cOacPxIuw9trigeX9xls1hp21rXzWZsn4RgCthpersnHebmZS4ZxbN5EMOT2tnK6J3GJQkFFKVb/bS65IEC0zRm3EtqvH6c/OJPr8vpxFFtRe7SE9b/BWVXQ+jyR9wvM+SiKyrqXGlkXahcf8lNpE8NehsPspe0LbUblA+FwW3TxN7wXCqnrGhux6xNDqant97zXFv06HH7/cM4FihIpGbjw0S847FaCs6xv/ZifvEXSkDuz710vnvgQ6/biYZ4XDgshxGMkZ2R4JNtjmBPa2NRtpr2PAgtPA3d8Q4RnZU53dAZ/gadzxVG/x/uGEGrydfJeVwlHq6rYfSPBDGwS3R2tdIfGYVJ8HO7s50CDSjnQPc2+ArqFt6tLuNB6KlLza1J8HL7czbYdJbxU0EEnk5yHBEzuZg5/0DzJkUxyvHYrVoIBLmYLxRoTtuIZo7vW244WOU9+uvu8OGqWYAaGVDP5hEsggm1cvc6YY9G1Pq73BIOaSfHQ01eKtSy4vUawDMBf3sALjhp27QDdExt0w3XEnvbmyGymSfHT3X6b4o3Lsau9aJNMuJrNZjRvB5qiUFAeDbsohC7550faDvlHIPGFicgMsuq/zaWeaPCMr59Vyxt4obaRZ4kG2FTaxB+v1tc6MTRqfkYoxW4ntRlMezFFwANv+IDhWlPzlKE5UPc636/ycuGjptCsd7BkoPPEL6IlA4qbM5/8meo3k8+oTvt711aMFZL84VuM1QbIDK4QQsxYzvNrrOjDfSz0mHv3ocK6VTOrb7ubrIxj6B7ntUoObNjL+equiWUHqdI04u/H6fT5AAvlBcSmsyns3vgqh1YaxqDHlR6k21fBSrapULZhL+c3TOzvTgHwdYbOwxSCs5PQdq5lQlBKVCYAhlUU4vZlr3uRdVYlZnsANA9efynltY3sLEuy8sGIf8rVEMIBMNhPDTsbNZyXQzdkqVaKzWAJlR7EGzEzVXVDhDHsGvYQrI2dZIjhEohUVnfQelu5Zn6RurJyVFfitpO2mWT21qR4uHIO6nds51kS30wXw3WDTu932fbaz/iXLamVEwT0Wn60rwrPxd9EZ1dDJQO2137Gu69N3ObBnAbOBDO7QgghpiXny8uhWYh5eLdxJjm/gbFxJelKClMZG1dwfpP4PZPi48jZ/+RwqD716GtVkdrUtEoUMiBSA0s/738anIkNlhZkZv/Ja2qVSc9DJksUTO52/ocaXt5RCwnCbCrCgdeKl2tng/sIB2eI3qDVHZrdfOGlshkt8eVq+5z+UPmBY2Mt2rnr9IfeS35JfwY/k+YlGBfnKjDnw0i0/MBYfxzpP4Xj8vv9TPgrIYU24dlbvDcSX/KfYqWIeOGVEs6EvofeOrRlyrrZ9fv3Uk0Xn4RKE4yM9buxEu9r2iUKbi8eqibO1E46syuEECJdkWXCdN0MDGZxKLPrf8ehxQlb1kxv+xbn1GvgmnydHDjZGQyUG6o4+FQH//drH04NtlosTDkFq8aVEQCvrCwBrZuz0av+k3uqhK1oHDsXLTOoTtR3un0N+bgDPG2Zeio50Xl4526CdjMpUXB58NSUoqrgms59U+ESh8vRgFxgzoe4axkmv5NLTc7QMlplVNh7+Wqas2zRMojQC5qfESDfrJLyVK2B3++P3MTW7/ZSV1OGvec6/dioL8tHA1QV+nFQWwbOy27C57RkXQMOczTcp8psNsPI7UlDfsI2odlqT190DDFUM/l4cboSv51M+HsouK7sFhrXNfG7tontAnWv8w/VCh2f/gfXjONyeXkAFBXbSWeqdtrfu6GZ5+q4/kqKi8DbxfU0j18IIURiJkd46av8hf9Upi/vKNx5MPH1FcuenPQGszsPgtsmE7BU8+HauAcw6D6cQ8HZ3V4fUFLC7tASQIFVDbHlA2HKSg5tWhXdb6jdhc40L/UrFhwF0bG9W5Vgof00+zIp9zjapVFW3ciHhlKPgKWaYxtXRv6d7DzMDjNm8/S3VhQ1sn3A7KC2LLqzgNnBs+WxO9d1DX+KOTSgW3m2sYHVZsO5isxienBF6nb9WBwbeNZmaGd2sDnBU9KCQThqyP0NWnEpq806Jnc7bd5i1r3UyMs7rLi+aMHpNVO+qZGXNy7Hezm6Tm1At2IvBk/75OHWXhc7frW8gbq45b1SaQNQYFuOihdXhtaRDti284PG2J9ZXfckvMQfLk3QO09MmKU1KddpuujFtvWf+UGd4TOwbeftNxLUjcyQSXFz5mIX1i37eCn0mQds2/mHLcV0XpyFVRuEEGKRygkvD1a0qpSve69meTizKxCA/2pT+Pu65I/sjXfnQXCbQCB5G5Ovk3OWVzm/L7wsly/mAQx//KKZ8p3bOfTaXg4B3Gvl/XslHIp/KJmvi/d9VZzfF60nSHeZLdPdVg5aLBwN18r6ujjY2s/R+BKFafTV3dHEQRqj+w7t5+Bnd4M3Wk1xHuYTk7udv5iDN0Ttqg0tzdXuZXO4RMHvxGV+kV07wkuIGWpnU9m/oaZ0V9zTwj4zLNWl9bbyF6LjgPAyYe7IZXST4uFKu5XdtRvY5YguE2byO3F6S6mrKcf1RS+uts+J5EdFAePXxmnB0A10iWp/jcfZf62Dyk3b2ZVkGTUgpTYQmtX1fzONeerETO5m2re/w7s/j/abrCxg/f7QUmLV+3j35/uix9p5gn/7+Dqupo/4FW/ylqEON1ju0DYrpVumtt9zpPhN3vo/P2Nb6LXkJRJCCCGmQ9n3vR2RaYs7/YMssRRmczxzwmSC557W2eBI/nSzsXGFFmdw5naycCuyI92azYUqXEvrMPsnBPDg6ghLcE6zTnkuPU5jFUIIMf8tmkf1GgUC0Nqn8NXXUGGFVUvBnBd8zz8Kdwegx6Pw7aPsjlNMZhi/H4qnWb+6UMTeDLed8rhlzC6duz6tm+LmWoFtOWoGZ3iFEEIsbotyBlcsDOH1W+lrzejjb8XcCj5umLRKQIQQQojJSMAVQgghhBALiinbAxBCCCGEECKTJOAKIYQQQogFRQKuEEIIIYRYUCTgCiGEEEKIBUUCrhBCCCGEWFAk4AohhBBCiAVFAq4QQgghhFhQ/j+p4XQKwod1VgAAAABJRU5ErkJggg==;" vertex="1" parent="1">
          <mxGeometry x="600" y="2130" width="434" height="270" as="geometry" />
        </mxCell>
        <mxCell id="zuOMxPo34sfkS7YnPlBM-22" style="edgeStyle=orthogonalEdgeStyle;rounded=0;orthogonalLoop=1;jettySize=auto;html=1;" edge="1" parent="1" source="zuOMxPo34sfkS7YnPlBM-3" target="zuOMxPo34sfkS7YnPlBM-20">
          <mxGeometry relative="1" as="geometry" />
        </mxCell>
        <mxCell id="zuOMxPo34sfkS7YnPlBM-3" value="&lt;font style=&quot;font-size: 18px;&quot;&gt;SqlParser&lt;/font&gt;" style="rounded=1;whiteSpace=wrap;html=1;" vertex="1" parent="1">
          <mxGeometry x="277.25" y="2525" width="120" height="60" as="geometry" />
        </mxCell>
        <mxCell id="zuOMxPo34sfkS7YnPlBM-5" style="edgeStyle=orthogonalEdgeStyle;rounded=0;orthogonalLoop=1;jettySize=auto;html=1;entryX=0;entryY=0.5;entryDx=0;entryDy=0;" edge="1" parent="1" source="zuOMxPo34sfkS7YnPlBM-4" target="zuOMxPo34sfkS7YnPlBM-3">
          <mxGeometry relative="1" as="geometry" />
        </mxCell>
        <mxCell id="zuOMxPo34sfkS7YnPlBM-4" value="&lt;b&gt;&lt;font style=&quot;font-size: 14px;&quot;&gt;SQL&lt;/font&gt;&lt;/b&gt;" style="text;html=1;strokeColor=none;fillColor=none;align=center;verticalAlign=middle;whiteSpace=wrap;rounded=0;" vertex="1" parent="1">
          <mxGeometry x="169" y="2540" width="60" height="30" as="geometry" />
        </mxCell>
        <mxCell id="zuOMxPo34sfkS7YnPlBM-12" style="edgeStyle=orthogonalEdgeStyle;rounded=0;orthogonalLoop=1;jettySize=auto;html=1;exitX=0.5;exitY=1;exitDx=0;exitDy=0;" edge="1" parent="1" source="zuOMxPo34sfkS7YnPlBM-6" target="zuOMxPo34sfkS7YnPlBM-10">
          <mxGeometry relative="1" as="geometry" />
        </mxCell>
        <mxCell id="zuOMxPo34sfkS7YnPlBM-6" value="&lt;font style=&quot;font-size: 18px;&quot;&gt;RoutingRule_1&lt;/font&gt;" style="rounded=1;whiteSpace=wrap;html=1;fillColor=#cce5ff;strokeColor=#36393d;" vertex="1" parent="1">
          <mxGeometry x="479" y="2540" width="120" height="60" as="geometry" />
        </mxCell>
        <mxCell id="zuOMxPo34sfkS7YnPlBM-13" style="edgeStyle=orthogonalEdgeStyle;rounded=0;orthogonalLoop=1;jettySize=auto;html=1;exitX=0.5;exitY=1;exitDx=0;exitDy=0;" edge="1" parent="1" source="zuOMxPo34sfkS7YnPlBM-7" target="zuOMxPo34sfkS7YnPlBM-10">
          <mxGeometry relative="1" as="geometry" />
        </mxCell>
        <mxCell id="zuOMxPo34sfkS7YnPlBM-7" value="&lt;font style=&quot;font-size: 18px;&quot;&gt;RoutingRule_2&lt;/font&gt;" style="rounded=1;whiteSpace=wrap;html=1;fillColor=#cce5ff;strokeColor=#36393d;" vertex="1" parent="1">
          <mxGeometry x="640" y="2540" width="120" height="60" as="geometry" />
        </mxCell>
        <mxCell id="zuOMxPo34sfkS7YnPlBM-16" style="edgeStyle=orthogonalEdgeStyle;rounded=0;orthogonalLoop=1;jettySize=auto;html=1;" edge="1" parent="1" source="zuOMxPo34sfkS7YnPlBM-10" target="zuOMxPo34sfkS7YnPlBM-14">
          <mxGeometry relative="1" as="geometry" />
        </mxCell>
        <mxCell id="zuOMxPo34sfkS7YnPlBM-24" value="" style="edgeStyle=orthogonalEdgeStyle;rounded=0;orthogonalLoop=1;jettySize=auto;html=1;dashed=1;" edge="1" parent="1" source="zuOMxPo34sfkS7YnPlBM-10" target="zuOMxPo34sfkS7YnPlBM-23">
          <mxGeometry relative="1" as="geometry" />
        </mxCell>
        <mxCell id="zuOMxPo34sfkS7YnPlBM-26" value="" style="edgeStyle=orthogonalEdgeStyle;orthogonalLoop=1;jettySize=auto;html=1;curved=1;" edge="1" parent="1" source="zuOMxPo34sfkS7YnPlBM-10" target="zuOMxPo34sfkS7YnPlBM-25">
          <mxGeometry relative="1" as="geometry" />
        </mxCell>
        <mxCell id="zuOMxPo34sfkS7YnPlBM-10" value="&lt;font style=&quot;font-size: 18px;&quot;&gt;TargetNode&lt;/font&gt;" style="rounded=1;whiteSpace=wrap;html=1;" vertex="1" parent="1">
          <mxGeometry x="367" y="2700" width="120" height="60" as="geometry" />
        </mxCell>
        <mxCell id="zuOMxPo34sfkS7YnPlBM-14" value="&lt;font style=&quot;font-size: 18px;&quot;&gt;Database&lt;/font&gt;" style="rounded=1;whiteSpace=wrap;html=1;" vertex="1" parent="1">
          <mxGeometry x="361.5" y="2800" width="131" height="60" as="geometry" />
        </mxCell>
        <mxCell id="zuOMxPo34sfkS7YnPlBM-18" style="edgeStyle=orthogonalEdgeStyle;rounded=0;orthogonalLoop=1;jettySize=auto;html=1;exitX=0.5;exitY=1;exitDx=0;exitDy=0;" edge="1" parent="1" source="zuOMxPo34sfkS7YnPlBM-17" target="zuOMxPo34sfkS7YnPlBM-10">
          <mxGeometry relative="1" as="geometry" />
        </mxCell>
        <mxCell id="zuOMxPo34sfkS7YnPlBM-17" value="&lt;font style=&quot;font-size: 18px;&quot;&gt;RoutingRule_N&lt;/font&gt;" style="rounded=1;whiteSpace=wrap;html=1;fillColor=#cce5ff;strokeColor=#36393d;" vertex="1" parent="1">
          <mxGeometry x="790" y="2540" width="120" height="60" as="geometry" />
        </mxCell>
        <mxCell id="zuOMxPo34sfkS7YnPlBM-21" value="&lt;font style=&quot;font-size: 18px;&quot;&gt;RoutingGroup&lt;/font&gt;" style="text;html=1;strokeColor=none;fillColor=none;align=center;verticalAlign=middle;whiteSpace=wrap;rounded=0;" vertex="1" parent="1">
          <mxGeometry x="467" y="2500" width="113" height="30" as="geometry" />
        </mxCell>
        <mxCell id="zuOMxPo34sfkS7YnPlBM-23" value="&lt;font style=&quot;font-size: 18px;&quot;&gt;DataSource&lt;/font&gt;" style="rounded=1;whiteSpace=wrap;html=1;" vertex="1" parent="1">
          <mxGeometry x="554" y="2700" width="120" height="60" as="geometry" />
        </mxCell>
        <mxCell id="zuOMxPo34sfkS7YnPlBM-25" value="&lt;font style=&quot;font-size: 14px;&quot;&gt;抽象的目标节点&lt;br&gt;目前的实现是数据源&lt;/font&gt;" style="shape=document;whiteSpace=wrap;html=1;boundedLbl=1;rounded=1;" vertex="1" parent="1">
          <mxGeometry x="150" y="2690" width="137" height="60" as="geometry" />
        </mxCell>
      </root>
    </mxGraphModel>
  </diagram>
</mxfile>
